<svg width="490" height="110" viewBox="0 0 490 110" fill="none" xmlns="http://www.w3.org/2000/svg">
<g clip-path="url(#clip0_1061_3341)">
<mask id="mask0_1061_3341" style="mask-type:luminance" maskUnits="userSpaceOnUse" x="0" y="0" width="490" height="110">
<path d="M490 0H0V110H490V0Z" fill="white"/>
</mask>
<g mask="url(#mask0_1061_3341)">
<mask id="mask1_1061_3341" style="mask-type:luminance" maskUnits="userSpaceOnUse" x="0" y="0" width="490" height="110">
<path d="M0 0H490V110H0V0Z" fill="white"/>
</mask>
<g mask="url(#mask1_1061_3341)">
<path d="M181.865 386.883C68.829 364.691 -80.811 304.785 -72.731 214.909C-69.351 177.032 -32.169 136.751 10.287 104.157C83.777 49.6801 152.754 21.2091 197.449 25.9001C226.005 28.7441 252.556 44.9001 276.212 73.5221C293.746 95.0731 309.13 121.662 323.594 150.075C330.188 163.019 336.559 176.354 342.789 189.755C385.184 116.078 429.455 56.1201 474.032 32.8051C505.738 15.2151 584.554 35.2851 647.783 100.274C743.324 198.011 650.231 289.935 555.071 339.022C445.285 395.663 306.907 411.889 181.927 386.924L181.9 386.866L181.865 386.883Z" fill="url(#paint0_radial_1061_3341)"/>
<path d="M181.865 386.883C68.829 364.691 -80.811 304.785 -72.731 214.909C-69.351 177.032 -32.169 136.751 10.287 104.157C83.777 49.6801 152.754 21.2091 197.449 25.9001C226.005 28.7441 252.556 44.9001 276.212 73.5221C293.746 95.0731 309.13 121.662 323.594 150.075C330.188 163.019 336.559 176.354 342.789 189.755C385.184 116.078 429.455 56.1201 474.032 32.8051C505.738 15.2151 584.554 35.2851 647.783 100.274C743.324 198.011 650.231 289.935 555.071 339.022C445.285 395.663 306.907 411.889 181.927 386.924L181.9 386.866L181.865 386.883Z" fill="url(#paint1_radial_1061_3341)"/>
<path d="M181.865 386.883C68.829 364.691 -80.811 304.785 -72.731 214.909C-69.351 177.032 -32.169 136.751 10.287 104.157C83.777 49.6801 152.754 21.2091 197.449 25.9001C226.005 28.7441 252.556 44.9001 276.212 73.5221C293.746 95.0731 309.13 121.662 323.594 150.075C330.188 163.019 336.559 176.354 342.789 189.755C385.184 116.078 429.455 56.1201 474.032 32.8051C505.738 15.2151 584.554 35.2851 647.783 100.274C743.324 198.011 650.231 289.935 555.071 339.022C445.285 395.663 306.907 411.889 181.927 386.924L181.9 386.866L181.865 386.883Z" fill="url(#paint2_linear_1061_3341)"/>
</g>
</g>
</g>
<defs>
<radialGradient id="paint0_radial_1061_3341" cx="0" cy="0" r="1" gradientTransform="matrix(902.821 491.777 -970.73 973.336 -153.102 -39.4535)" gradientUnits="userSpaceOnUse">
<stop stop-color="#FFF7F4"/>
<stop offset="0.546875" stop-color="#F4D4C7"/>
<stop offset="1" stop-color="#F4D4C7"/>
</radialGradient>
<radialGradient id="paint1_radial_1061_3341" cx="0" cy="0" r="1" gradientTransform="matrix(902.821 491.777 -970.73 973.336 -153.102 -39.4536)" gradientUnits="userSpaceOnUse">
<stop stop-color="#FFF7F4"/>
<stop offset="0.546875" stop-color="#F4D4C7"/>
<stop offset="1" stop-color="#F4D4C7"/>
</radialGradient>
<linearGradient id="paint2_linear_1061_3341" x1="-73.0448" y1="25.3999" x2="533.978" y2="569.875" gradientUnits="userSpaceOnUse">
<stop stop-color="#FFACAA"/>
<stop offset="0.25" stop-color="#DF7370"/>
<stop offset="0.5" stop-color="#DE6562"/>
<stop offset="0.75" stop-color="#DF7370"/>
<stop offset="1" stop-color="#FFACAA"/>
</linearGradient>
<clipPath id="clip0_1061_3341">
<rect width="490" height="110" fill="white"/>
</clipPath>
</defs>
</svg>
