<svg xmlns="http://www.w3.org/2000/svg" width="490" height="110" fill="none" viewBox="0 0 490 110"><g clip-path="url(#a)"><path fill="#d0def6" d="M-64.86 369.518c-113.204-22.226-263.067-82.22-254.975-172.231 3.385-37.933 40.622-78.274 83.142-110.917C-163.094 31.812-94.014 3.3-49.253 7.997c28.599 2.848 55.19 19.028 78.88 47.693 17.561 21.583 32.968 48.211 47.454 76.667 6.604 12.964 12.984 26.318 19.223 39.739C138.762 98.309 183.1 38.262 227.743 14.912c31.753-17.617 110.686 2.483 174.009 67.57 95.684 97.882 2.453 189.944-92.85 239.104-109.95 56.725-248.534 72.975-373.7 47.973l-.027-.058z"/></g><defs><clipPath id="a"><path fill="#fff" d="M0 0h490v110H0z"/></clipPath></defs></svg>