<svg xmlns="http://www.w3.org/2000/svg" width="491" height="110" fill="none" viewBox="0 0 491 110"><g fill="#d0def6" clip-path="url(#a)"><path d="M-313.302 386.883c-113.036-22.192-262.676-82.098-254.595-171.974 3.379-37.877 40.561-78.158 83.017-110.752C-411.39 49.68-342.413 21.209-297.718 25.9c28.556 2.844 55.107 19 78.763 47.622 17.534 21.551 32.918 48.14 47.382 76.553 6.595 12.944 12.965 26.279 19.195 39.68 42.395-73.677 86.666-133.635 131.243-156.95 31.706-17.59 110.522 2.48 173.751 67.469 95.541 97.737 2.448 189.661-92.712 238.748-109.786 56.641-248.164 72.867-373.144 47.902l-.027-.058z"/><path d="M431.14 369.387c-113.204-22.226-263.067-82.22-254.975-172.231 3.385-37.933 40.622-78.274 83.142-110.917C332.906 31.681 401.986 3.168 446.748 7.866c28.598 2.848 55.189 19.028 78.879 47.693 17.561 21.583 32.968 48.211 47.454 76.667 6.604 12.964 12.984 26.318 19.223 39.739 42.458-73.787 86.795-133.834 131.439-157.184 31.753-17.617 110.686 2.484 174.009 67.57 95.684 97.882 2.453 189.944-92.85 239.104-109.95 56.725-248.534 72.975-373.699 47.973l-.028-.058z"/></g><defs><clipPath id="a"><path fill="#fff" d="M0 0h491v110H0z"/></clipPath></defs></svg>