<svg width="36" height="37" viewBox="0 0 36 37" fill="none" xmlns="http://www.w3.org/2000/svg">
<g clip-path="url(#clip0_2292_3312)">
<path d="M17.6349 8.51959C14.2254 3.88488 8.33258 -1.60062 4.44419 0.678462C2.80494 1.63777 1.77683 4.17558 1.20832 6.78799C0.311996 11.2686 0.494461 14.9915 1.65813 16.9111C2.39466 18.1408 3.68992 18.9964 5.48673 19.4557C6.83373 19.789 8.36252 19.9179 9.95419 19.9663C10.6794 19.9886 11.4175 19.9925 12.1556 19.9886C9.72968 23.4731 7.96358 26.7503 7.85942 29.261C7.73984 31.0681 10.3249 34.2019 14.6074 35.6748C21.0573 37.9102 23.228 31.7464 23.4194 26.4014C23.6406 20.2348 21.4272 13.6369 17.6381 8.52153H17.6349V8.51959Z" fill="#003CA6"/>
<path d="M34.7811 13.7774C34.3604 13.071 33.62 12.5856 32.5871 12.322C31.8174 12.1321 30.9396 12.0584 30.0279 12.0274C29.612 12.0148 29.1896 12.0129 28.7672 12.0158C30.1578 10.0177 31.1674 8.14173 31.228 6.7018C31.295 5.66594 29.6887 3.66787 27.2338 2.8229C23.5377 1.54286 22.4239 5.27641 22.3141 8.3365C22.1889 11.8675 23.4567 15.6505 25.6251 18.5778C27.5793 21.2319 30.9533 24.3744 33.1813 23.0711C34.1213 22.5216 34.7109 21.0662 35.0331 19.572C35.5451 17.0051 35.4441 14.8714 34.7755 13.7716L34.7788 13.7764H34.7803L34.7811 13.7774Z" fill="#003CA6"/>
</g>
<defs>
<clipPath id="clip0_2292_3312">
<rect width="36" height="37" fill="white"/>
</clipPath>
</defs>
</svg>
