<svg width="36" height="37" viewBox="0 0 36 37" fill="none" xmlns="http://www.w3.org/2000/svg">
<path d="M17.635 8.51959C14.2255 3.88488 8.33272 -1.60062 4.44433 0.678462C2.80508 1.63777 1.77697 4.17558 1.20846 6.78799C0.312134 11.2686 0.494599 14.9915 1.65827 16.9111C2.3948 18.1408 3.69006 18.9964 5.48687 19.4557C6.83387 19.789 8.36266 19.9179 9.95433 19.9663C10.6795 19.9886 11.4176 19.9925 12.1557 19.9886C9.72982 23.4731 7.96372 26.7503 7.85956 29.261C7.73998 31.0681 10.325 34.2019 14.6075 35.6748C21.0574 37.9102 23.2281 31.7464 23.4195 26.4014C23.6407 20.2348 21.4273 13.6369 17.6382 8.52153H17.635V8.51959Z" fill="#E7F0FF"/>
<path d="M34.7812 13.7774C34.3605 13.071 33.62 12.5856 32.5871 12.322C31.8174 12.1321 30.9396 12.0584 30.0279 12.0274C29.612 12.0148 29.1897 12.0129 28.7673 12.0158C30.1579 10.0177 31.1674 8.14173 31.228 6.7018C31.295 5.66594 29.6887 3.66787 27.2338 2.8229C23.5377 1.54286 22.424 5.27641 22.3142 8.3365C22.189 11.8675 23.4568 15.6505 25.6252 18.5778C27.5794 21.2319 30.9534 24.3744 33.1814 23.0711C34.1214 22.5216 34.711 21.0662 35.0332 19.572C35.5452 17.0051 35.4442 14.8714 34.7756 13.7716L34.7788 13.7764H34.7804L34.7812 13.7774Z" fill="#E7F0FF"/>
</svg>
