<?xml version="1.0" encoding="UTF-8"?>
<svg id="Layer_1" xmlns="http://www.w3.org/2000/svg" version="1.1" viewBox="0 0 222 49">
  <!-- Generator: Adobe Illustrator 29.8.3, SVG Export Plug-In . SVG Version: 2.1.1 Build 3)  -->
  <defs>
    <style>
      .st0 {
        fill: #292929;
      }

      .st1 {
        fill: #003ca6;
      }
    </style>
  </defs>
  <path class="st0" d="M144.2,15.02c3.28,0,6.16,1.65,7.86,4.16l-2.75,1.82c-1.1-1.63-2.98-2.7-5.11-2.7-3.4,0-6.15,2.72-6.15,6.08s2.75,6.09,6.15,6.09c2.13,0,4.01-1.07,5.11-2.7l2.75,1.82c-1.44,2.13-3.75,3.64-6.42,4.05l-1.48,3.7h-3.3l1.5-3.77c-4.34-.85-7.62-4.63-7.62-9.18,0-5.17,4.23-9.36,9.45-9.36ZM171.83,15.02c3.28,0,6.16,1.65,7.86,4.16l-2.75,1.82c-1.1-1.63-2.98-2.7-5.11-2.7-3.4,0-6.15,2.72-6.15,6.08s2.75,6.08,6.15,6.08c2.13,0,4.01-1.07,5.11-2.7l2.75,1.82c-1.44,2.13-3.75,3.64-6.42,4.05l-1.43,3.7h-3.35l1.5-3.77c-4.34-.85-7.62-4.63-7.62-9.18,0-5.17,4.23-9.36,9.45-9.36ZM67.2,15.39h5.51v2.91h-5.51v9.08c0,2.36,2.61,3.72,4.64,2.7l.71,3.27c-.69.25-1.45.39-2.23.39-3.55,0-6.42-2.85-6.42-6.36v-9.08h-4.4v-2.91h4.4v-6.75h3.3v6.75ZM83.61,15.02c2.62,0,4.71,1.05,6.15,2.76v-2.4h3.3v17.99h-3.3v-2.4c-1.44,1.7-3.53,2.76-6.15,2.76-5.22,0-9.45-4.19-9.45-9.36,0-5.17,4.23-9.36,9.45-9.36ZM122.68,15.02c4.62,0,8.47,3.29,9.29,7.63.1.56.16,1.14.16,1.73,0,.34-.02.67-.05,1h-15.46c.48,2.89,3.01,5.09,6.07,5.09,1.99,0,3.77-.94,4.89-2.4l2.75,1.82c-1.72,2.33-4.5,3.85-7.64,3.85-4.88,0-8.9-3.66-9.4-8.36-.04-.33-.05-.66-.05-1,0-.59.06-1.17.16-1.73.82-4.34,4.67-7.63,9.29-7.63ZM191.13,15.02c4.62,0,8.47,3.29,9.29,7.63.11.56.16,1.14.16,1.73,0,.34-.02.67-.05,1h-15.46c.48,2.89,3.01,5.09,6.07,5.09,1.99,0,3.77-.94,4.89-2.4l2.75,1.82c-1.72,2.33-4.5,3.85-7.64,3.85-4.88,0-8.9-3.66-9.4-8.36-.04-.33-.05-.66-.05-1,0-.59.06-1.17.16-1.73.82-4.34,4.67-7.63,9.29-7.63ZM207.29,22.2l7.34-6.81h4.59l-8.81,8.17,10.28,9.81h-4.77l-8.63-8.24v8.24h-3.3V8.64h3.3v13.56ZM111.2,16.87l-10.11,13.6h10.67v2.91h-15.78v-1.45l10.14-13.62h-9.22v-2.91h14.32v1.48ZM158.67,33.37h-3.3V15.38h3.3v17.99ZM83.61,18.29c-3.4,0-6.15,2.72-6.15,6.08,0,3.36,2.75,6.09,6.15,6.09,3.4,0,6.15-2.73,6.15-6.09s-2.75-6.08-6.15-6.08ZM122.68,18.29c-2.79,0-5.15,1.84-5.9,4.36h11.79c-.75-2.52-3.11-4.36-5.9-4.36ZM191.13,18.29c-2.79,0-5.15,1.84-5.9,4.36h11.79c-.75-2.52-3.11-4.36-5.9-4.36ZM157.02,8c.6,0,1.09.21,1.55.63.42.42.63.94.63,1.53s-.21,1.11-.63,1.53c-.46.42-.95.63-1.55.63s-1.09-.21-1.51-.63c-.46-.42-.67-.94-.67-1.53s.21-1.11.67-1.53c.42-.42.92-.63,1.51-.63Z"/>
  <path class="st1" d="M5.22.9c5.18-3.01,13.04,4.23,17.59,10.35h0s0,0,0,0c5.05,6.75,8,15.46,7.71,23.6-.26,7.05-3.15,15.19-11.75,12.24-5.71-1.94-9.16-6.08-9-8.46.14-3.31,2.49-7.64,5.73-12.24-.98,0-1.97,0-2.93-.03-2.12-.06-4.16-.23-5.96-.67-2.4-.61-4.12-1.74-5.1-3.36C-.05,19.79-.29,14.87.9,8.96,1.66,5.51,3.03,2.16,5.22.9ZM29.04,11c.15-4.04,1.63-8.97,6.56-7.28,3.27,1.12,5.41,3.75,5.33,5.12-.08,1.9-1.43,4.38-3.28,7.01.56,0,1.13,0,1.68.02,1.22.04,2.39.14,3.41.39,1.38.35,2.36.99,2.93,1.92h0s0,0,0,0l.08.13c.82,1.49.92,4.23.26,7.52-.43,1.97-1.22,3.89-2.47,4.62-2.97,1.72-7.47-2.43-10.07-5.93-2.89-3.86-4.58-8.86-4.42-13.52Z"/>
</svg>