<svg width="148" height="33" viewBox="0 0 148 33" fill="none" xmlns="http://www.w3.org/2000/svg">
<path d="M48.4725 12.3197V10.3619H44.8015V5.81837H42.5991V10.3619H39.6628V12.3197H42.5991V18.4369C42.5991 20.8021 44.5164 22.7194 46.8816 22.7194C47.4045 22.7194 47.9058 22.6255 48.3683 22.4541L47.898 20.2543C46.5397 20.9425 44.8015 20.0243 44.8015 18.4369V12.3197H48.4725Z" fill="#292929"/>
<path d="M59.8378 10.361V11.9752C58.8809 10.827 57.4855 10.1173 55.7388 10.1173C52.259 10.1173 49.4373 12.9381 49.4373 16.4179C49.4373 19.8968 52.259 22.7185 55.7388 22.7185C57.4855 22.7185 58.8809 22.0088 59.8378 20.8606V22.4748H62.0402V10.361H59.8378ZM55.7388 20.5161C53.4752 20.5161 51.6397 18.6815 51.6397 16.4179C51.6397 14.1535 53.4752 12.3197 55.7388 12.3197C58.0023 12.3197 59.8378 14.1543 59.8378 16.4179C59.8378 18.6806 58.0032 20.5161 55.7388 20.5161Z" fill="#292929"/>
<path d="M67.3899 20.5161L74.1324 11.3584V10.361H64.5888V12.3188H70.7336L63.9773 21.4954V22.4739H74.5002V20.5161H67.3899Z" fill="#292929"/>
<path d="M88.086 16.4179C88.086 16.0208 88.049 15.6324 87.9792 15.2551C87.434 12.3309 84.8672 10.1173 81.7845 10.1173C78.7018 10.1173 76.1368 12.3309 75.5907 15.2551C75.5209 15.6324 75.4839 16.0208 75.4839 16.4179C75.4839 16.6453 75.4959 16.8701 75.5192 17.0906C75.8551 20.2543 78.5321 22.7185 81.7845 22.7185C83.8784 22.7185 85.7329 21.6979 86.8793 20.1268L85.0455 18.9011C84.2962 19.883 83.1144 20.5161 81.7845 20.5161C79.7509 20.5161 78.0627 19.0338 77.7414 17.0906H88.0507C88.0739 16.8701 88.086 16.6453 88.086 16.4179ZM77.8534 15.2551C78.3547 13.5574 79.9249 12.3197 81.7845 12.3197C83.6441 12.3197 85.2152 13.5574 85.7156 15.2551H77.8534Z" fill="#292929"/>
<path d="M96.1317 20.5161C93.8673 20.5161 92.0318 18.6815 92.0318 16.4179C92.0318 14.1535 93.8673 12.3197 96.1317 12.3197C97.552 12.3197 98.8044 13.0423 99.5391 14.1405L101.371 12.9166C100.24 11.2284 98.316 10.1173 96.1317 10.1173C92.6511 10.1173 89.8293 12.9381 89.8293 16.4179C89.8293 19.4799 92.0137 22.0312 94.9086 22.6005L93.906 25.1389H96.1084L97.093 22.6462C98.8733 22.3731 100.41 21.355 101.371 19.9192L99.5391 18.6953C98.8044 19.7935 97.552 20.5161 96.1317 20.5161Z" fill="#292929"/>
<path d="M105.781 10.361H103.579V22.4739H105.781V10.361Z" fill="#292929"/>
<path d="M114.555 20.5161C112.291 20.5161 110.456 18.6815 110.456 16.4179C110.456 14.1535 112.291 12.3197 114.555 12.3197C115.976 12.3197 117.227 13.0423 117.964 14.1405L119.795 12.9166C118.664 11.2284 116.74 10.1173 114.555 10.1173C111.075 10.1173 108.254 12.9381 108.254 16.4179C108.254 19.4799 110.437 22.0312 113.332 22.6005L112.33 25.1389H114.562L115.516 22.6462C117.297 22.3731 118.833 21.355 119.794 19.9192L117.963 18.6953C117.227 19.7935 115.975 20.5161 114.555 20.5161H114.555Z" fill="#292929"/>
<path d="M133.719 16.4179C133.719 16.0208 133.683 15.6324 133.613 15.2551C133.067 12.3309 130.501 10.1173 127.419 10.1173C124.335 10.1173 121.77 12.3309 121.224 15.2551C121.155 15.6324 121.117 16.0208 121.117 16.4179C121.117 16.6453 121.129 16.8701 121.153 17.0906C121.489 20.2543 124.166 22.7185 127.419 22.7185C129.513 22.7185 131.367 21.6979 132.513 20.1268L130.679 18.9011C129.93 19.883 128.749 20.5161 127.419 20.5161C125.384 20.5161 123.697 19.0338 123.375 17.0906H133.684C133.708 16.8701 133.719 16.6453 133.719 16.4179ZM123.488 15.2551C123.989 13.5574 125.558 12.3197 127.419 12.3197C129.278 12.3197 130.849 13.5574 131.35 15.2551H123.488Z" fill="#292929"/>
<path d="M140.27 15.8675L146.143 10.3619H143.085L138.19 14.9493V5.81837H135.988V22.4748H138.19V16.9287L143.941 22.4748H147.122L140.27 15.8675Z" fill="#292929"/>
<path d="M104.68 5.38856C104.282 5.38856 103.953 5.52981 103.672 5.8106C103.367 6.09226 103.226 6.44369 103.226 6.84249C103.226 7.24042 103.367 7.5927 103.672 7.8735C103.953 8.15515 104.281 8.29641 104.68 8.29641C105.08 8.29641 105.407 8.15515 105.712 7.8735C105.993 7.5927 106.134 7.24042 106.134 6.84249C106.134 6.44369 105.993 6.09226 105.712 5.8106C105.407 5.52981 105.079 5.38856 104.68 5.38856Z" fill="#292929"/>
<path d="M15.2019 7.5729C12.1712 3.45316 6.93322 -1.42284 3.47687 0.603009C2.01976 1.45573 1.10588 3.71156 0.600537 6.0337C-0.196194 10.0165 -0.0340029 13.3257 1.00037 15.032C1.65507 16.125 2.80641 16.8856 4.40357 17.2939C5.60091 17.5902 6.95983 17.7047 8.37465 17.7478C9.01927 17.7676 9.67535 17.7711 10.3314 17.7676C8.17508 20.865 6.60522 23.778 6.51263 26.0097C6.40634 27.6161 8.70411 30.4016 12.5108 31.7108C18.244 33.6979 20.1736 28.219 20.3437 23.4679C20.5403 17.9864 18.5728 12.1216 15.2047 7.57462H15.2019V7.5729Z" fill="#003CA6"/>
<path d="M30.4431 12.2465C30.0691 11.6186 29.4109 11.187 28.4928 10.9528C27.8086 10.7839 27.0284 10.7185 26.2179 10.6909C25.8482 10.6797 25.4729 10.678 25.0974 10.6806C26.3335 8.90451 27.2308 7.23697 27.2847 5.95704C27.3442 5.03627 25.9165 3.26021 23.7343 2.50913C20.4488 1.37131 19.4589 4.69002 19.3613 7.4101C19.25 10.5488 20.377 13.9114 22.3044 16.5135C24.0415 18.8727 27.0406 21.666 29.021 20.5075C29.8566 20.0191 30.3806 18.7254 30.667 17.3972C31.1222 15.1156 31.0324 13.2189 30.4381 12.2413L30.4409 12.2456H30.4424L30.4431 12.2465Z" fill="#003CA6"/>
</svg>
