<svg xmlns="http://www.w3.org/2000/svg" width="222" height="49" fill="none" viewBox="0 0 222 49"><path fill="#292929" d="M144.197 15.023a9.47 9.47 0 0 1 7.86 4.156l-2.748 1.817a6.16 6.16 0 0 0-5.112-2.703c-3.396 0-6.15 2.723-6.15 6.085s2.754 6.085 6.15 6.085a6.16 6.16 0 0 0 5.112-2.703l2.748 1.817a9.47 9.47 0 0 1-6.418 4.049l-1.477 3.701h-3.304l1.504-3.768c-4.342-.846-7.618-4.634-7.618-9.181 0-5.167 4.232-9.355 9.453-9.355m27.636 0a9.47 9.47 0 0 1 7.859 4.156l-2.747 1.817a6.16 6.16 0 0 0-5.112-2.703c-3.397 0-6.148 2.723-6.148 6.085 0 3.36 2.751 6.083 6.147 6.084a6.16 6.16 0 0 0 5.112-2.702l2.747 1.817a9.46 9.46 0 0 1-6.418 4.049l-1.429 3.701h-3.35l1.504-3.768c-4.342-.846-7.617-4.634-7.617-9.181 0-5.167 4.231-9.355 9.452-9.355m-104.63.363h5.506v2.907h-5.507v9.083c0 2.357 2.607 3.72 4.645 2.698l.706 3.267a6.5 6.5 0 0 1-2.23.393c-3.548 0-6.424-2.846-6.425-6.358v-9.083h-4.404v-2.907h4.404V8.64h3.304zm16.405-.363c2.62 0 4.713 1.053 6.149 2.758v-2.396h3.303v17.987h-3.303v-2.397c-1.436 1.704-3.529 2.758-6.149 2.758-5.22 0-9.452-4.19-9.452-9.355 0-5.167 4.233-9.355 9.452-9.355m39.069 0c4.624 0 8.474 3.287 9.292 7.628a9.5 9.5 0 0 1 .107 2.726h-15.464c.482 2.885 3.014 5.086 6.065 5.086 1.995 0 3.767-.94 4.891-2.398l2.75 1.82a9.47 9.47 0 0 1-7.641 3.848c-4.879 0-8.895-3.658-9.399-8.356a9.4 9.4 0 0 1 .108-2.726c.819-4.342 4.667-7.628 9.291-7.628m68.451 0c4.624 0 8.473 3.286 9.291 7.628a9.3 9.3 0 0 1 .106 2.726h-15.463c.483 2.885 3.014 5.086 6.066 5.086 1.995 0 3.767-.94 4.89-2.398l2.751 1.82a9.47 9.47 0 0 1-7.641 3.848c-4.879 0-8.895-3.658-9.399-8.356a9.538 9.538 0 0 1 .107-2.726c.819-4.342 4.667-7.628 9.292-7.628m16.157 7.174 7.342-6.811h4.588l-8.811 8.175 10.279 9.811h-4.772l-8.626-8.235v8.235h-3.303V8.64h3.303zm-96.087-5.332-10.113 13.598h10.665v2.907H95.966v-1.453L106.1 18.292h-9.218v-2.907h14.315zm47.474 16.505h-3.304V15.385h3.304zM83.608 18.293c-3.395 0-6.149 2.723-6.149 6.085s2.754 6.085 6.15 6.085 6.148-2.725 6.148-6.085-2.754-6.085-6.149-6.085m39.069 0c-2.79 0-5.145 1.838-5.897 4.358h11.793c-.75-2.52-3.107-4.358-5.896-4.358m68.451 0a6.14 6.14 0 0 0-5.897 4.358h11.793c-.75-2.52-3.107-4.358-5.896-4.358M157.021 8.001c.598 0 1.09.21 1.547.627.421.418.633.94.633 1.532a2.1 2.1 0 0 1-.633 1.531c-.457.418-.948.628-1.547.628s-1.092-.21-1.514-.628a2 2 0 0 1-.667-1.53c0-.593.21-1.115.667-1.533A2.06 2.06 0 0 1 157.021 8"/><path fill="#003ca6" d="M5.215.895c5.185-3.007 13.041 4.233 17.587 10.35v.002h.005c5.052 6.751 8.003 15.46 7.708 23.6-.255 7.054-3.15 15.189-11.749 12.239-5.71-1.944-9.156-6.08-8.997-8.465.139-3.314 2.493-7.64 5.728-12.239-.984.006-1.968 0-2.935-.029-2.122-.064-4.161-.235-5.957-.675-2.396-.606-4.122-1.735-5.105-3.358C-.05 19.786-.294 14.872.9 8.959 1.66 5.51 3.03 2.16 5.216.895m23.826 10.108c.147-4.04 1.632-8.967 6.56-7.278 3.273 1.115 5.415 3.753 5.325 5.12-.08 1.9-1.426 4.377-3.28 7.014a46 46 0 0 1 1.68.016c1.216.04 2.387.138 3.413.388 1.377.348 2.365.989 2.926 1.921h-.004l.077.132c.818 1.488.924 4.234.263 7.517-.43 1.972-1.217 3.893-2.47 4.618-2.97 1.72-7.469-2.428-10.074-5.93-2.892-3.864-4.582-8.858-4.416-13.518"/></svg>