<svg width="222" height="49" viewBox="0 0 222 49" fill="none" xmlns="http://www.w3.org/2000/svg">
<path d="M72.7087 18.2929V15.3858H67.2022V8.63939H63.8985V15.3858H59.4941V18.2929H63.8985V27.3759C63.8985 30.8879 66.7745 33.7348 70.3223 33.7348C71.1066 33.7348 71.8585 33.5954 72.5523 33.3409L71.8469 30.0745C69.8094 31.0964 67.2022 29.733 67.2022 27.3759V18.2929H72.7087Z" fill="#292929"/>
<path d="M89.7566 15.3845V17.7813C88.3212 16.0765 86.2282 15.0226 83.608 15.0226C78.3883 15.0226 74.1558 19.2111 74.1558 24.3781C74.1558 29.5437 78.3883 33.7336 83.608 33.7336C86.2282 33.7336 88.3212 32.6797 89.7566 30.9749V33.3716H93.0602V15.3845H89.7566ZM83.608 30.4633C80.2126 30.4633 77.4594 27.7391 77.4594 24.3781C77.4594 21.0157 80.2126 18.2929 83.608 18.2929C87.0034 18.2929 89.7566 21.017 89.7566 24.3781C89.7566 27.7379 87.0047 30.4633 83.608 30.4633Z" fill="#292929"/>
<path d="M101.085 30.4633L111.198 16.8656V15.3845H96.8831V18.2916H106.1L95.9658 31.9175V33.3704H111.75V30.4633H101.085Z" fill="#292929"/>
<path d="M132.129 24.3781C132.129 23.7885 132.073 23.2117 131.969 22.6515C131.151 18.3095 127.301 15.0226 122.677 15.0226C118.052 15.0226 114.205 18.3095 113.386 22.6515C113.281 23.2117 113.226 23.7885 113.226 24.3781C113.226 24.7157 113.244 25.0495 113.279 25.3769C113.782 30.0745 117.798 33.7336 122.677 33.7336C125.817 33.7336 128.599 32.218 130.319 29.8852L127.568 28.0653C126.444 29.5233 124.671 30.4633 122.677 30.4633C119.626 30.4633 117.094 28.2622 116.612 25.3769H132.076C132.111 25.0495 132.129 24.7157 132.129 24.3781ZM116.78 22.6515C117.532 20.1307 119.887 18.2929 122.677 18.2929C125.466 18.2929 127.823 20.1307 128.573 22.6515H116.78Z" fill="#292929"/>
<path d="M144.197 30.4633C140.801 30.4633 138.047 27.7391 138.047 24.3781C138.047 21.0157 140.801 18.2929 144.197 18.2929C146.328 18.2929 148.206 19.3659 149.308 20.9966L152.056 19.1792C150.36 16.6724 147.474 15.0226 144.197 15.0226C138.976 15.0226 134.744 19.2111 134.744 24.3781C134.744 28.9247 138.02 32.713 142.363 33.5584L140.859 37.3274H144.162L145.639 33.6261C148.31 33.2207 150.615 31.709 152.056 29.577L149.308 27.7596C148.206 29.3903 146.328 30.4633 144.197 30.4633Z" fill="#292929"/>
<path d="M158.672 15.3845H155.368V33.3704H158.672V15.3845Z" fill="#292929"/>
<path d="M171.833 30.4633C168.436 30.4633 165.684 27.7391 165.684 24.3781C165.684 21.0157 168.436 18.2929 171.833 18.2929C173.964 18.2929 175.841 19.3659 176.946 20.9966L179.692 19.1792C177.996 16.6724 175.11 15.0226 171.833 15.0226C166.612 15.0226 162.381 19.2111 162.381 24.3781C162.381 28.9247 165.656 32.713 169.998 33.5584L168.495 37.3274H171.843L173.274 33.6261C175.946 33.2207 178.249 31.709 179.691 29.577L176.944 27.7596C175.841 29.3903 173.962 30.4633 171.832 30.4633H171.833Z" fill="#292929"/>
<path d="M200.579 24.3781C200.579 23.7885 200.524 23.2117 200.419 22.6515C199.601 18.3095 195.752 15.0226 191.128 15.0226C186.502 15.0226 182.655 18.3095 181.836 22.6515C181.732 23.2117 181.676 23.7885 181.676 24.3781C181.676 24.7157 181.694 25.0495 181.73 25.3769C182.234 30.0745 186.249 33.7336 191.128 33.7336C194.269 33.7336 197.05 32.218 198.769 29.8852L196.018 28.0653C194.895 29.5233 193.123 30.4633 191.128 30.4633C188.076 30.4633 185.545 28.2622 185.062 25.3769H200.526C200.562 25.0495 200.579 24.7157 200.579 24.3781ZM185.231 22.6515C185.983 20.1307 188.337 18.2929 191.128 18.2929C193.917 18.2929 196.274 20.1307 197.024 22.6515H185.231Z" fill="#292929"/>
<path d="M210.404 23.5608L219.215 15.3858H214.627L207.286 22.1975V8.63939H203.982V33.3716H207.286V25.1365L215.911 33.3716H220.682L210.404 23.5608Z" fill="#292929"/>
<path d="M157.02 8.0012C156.423 8.0012 155.93 8.21093 155.507 8.62787C155.05 9.04608 154.839 9.56791 154.839 10.1601C154.839 10.7509 155.05 11.274 155.507 11.691C155.93 12.1092 156.422 12.3189 157.02 12.3189C157.62 12.3189 158.111 12.1092 158.568 11.691C158.989 11.274 159.201 10.7509 159.201 10.1601C159.201 9.56791 158.989 9.04608 158.568 8.62787C158.111 8.21093 157.618 8.0012 157.02 8.0012Z" fill="#292929"/>
<path d="M22.8026 11.2446C18.2566 5.12741 10.3996 -2.1127 5.21506 0.895376C3.02939 2.16153 1.65858 5.5111 0.900561 8.95913C-0.294535 14.873 -0.0512485 19.7867 1.50031 22.3203C2.48236 23.9433 4.20936 25.0726 6.60511 25.6788C8.40112 26.1187 10.4395 26.2888 12.5617 26.3528C13.5287 26.3822 14.5128 26.3873 15.4969 26.3822C12.2624 30.9813 9.90759 35.3067 9.7687 38.6204C9.60926 41.0057 13.0559 45.1418 18.7659 47.0858C27.3658 50.0363 30.2601 41.9009 30.5153 34.8463C30.8103 26.707 27.859 17.9987 22.8069 11.2472H22.8026V11.2446Z" fill="#003CA6"/>
<path d="M45.6643 18.1842C45.1033 17.2518 44.1159 16.611 42.7388 16.2632C41.7126 16.0125 40.5422 15.9153 39.3265 15.8744C38.772 15.8577 38.2089 15.8552 37.6458 15.859C39.4999 13.2218 40.8459 10.7458 40.9267 8.84529C41.0159 7.4781 38.8743 4.84091 35.601 3.72567C30.6729 2.03619 29.188 6.96397 29.0416 11.0029C28.8747 15.6634 30.5651 20.6563 33.4562 24.52C36.0619 28.0231 40.5605 32.1707 43.5312 30.4505C44.7846 29.7253 45.5706 27.8044 46.0002 25.8322C46.6829 22.4443 46.5483 19.6281 45.6568 18.1765L45.661 18.1829H45.6632L45.6643 18.1842Z" fill="#003CA6"/>
</svg>
