<svg width="558" height="579" viewBox="0 0 558 579" fill="none" xmlns="http://www.w3.org/2000/svg">
<path d="M273.133 134.59C218.329 60.0998 123.609 -28.0641 61.1069 8.56574C34.7577 23.9839 18.2319 64.772 9.09368 106.759C-5.31375 178.773 -2.38082 238.608 16.3239 269.46C28.1629 289.223 48.9828 302.975 77.8647 310.357C99.5163 315.714 124.09 317.786 149.674 318.564C161.331 318.922 173.195 318.985 185.059 318.922C146.066 374.926 117.678 427.597 116.003 467.949C114.081 496.994 155.632 547.36 224.469 571.033C328.144 606.962 363.037 507.896 366.113 421.99C369.669 322.878 334.09 216.836 273.184 134.621H273.133V134.59Z" fill="#003CA6"/>
<path d="M548.74 219.094C541.977 207.74 530.074 199.938 513.472 195.702C501.1 192.649 486.991 191.466 472.335 190.967C465.65 190.765 458.863 190.734 452.073 190.78C474.426 158.667 490.652 128.516 491.626 105.373C492.702 88.7247 466.884 56.6113 427.423 43.0308C368.012 22.4577 350.111 82.464 348.346 131.646C346.333 188.398 366.713 249.198 401.566 296.247C432.979 338.904 487.212 389.41 523.025 368.463C538.135 359.633 547.611 336.241 552.79 312.226C561.02 270.97 559.397 236.677 548.65 219L548.701 219.078H548.728L548.74 219.094Z" fill="#003CA6"/>
</svg>
