<svg width="490" height="110" viewBox="0 0 490 110" fill="none" xmlns="http://www.w3.org/2000/svg">
<g clip-path="url(#clip0_851_4413)">
<path d="M181.865 386.883C68.829 364.691 -80.8112 304.785 -72.7306 214.909C-69.3511 177.032 -32.1693 136.751 10.2869 104.157C83.7771 49.6796 152.754 21.2086 197.449 25.9C226.005 28.7442 252.556 44.9001 276.212 73.5224C293.746 95.0732 309.13 121.662 323.594 150.075C330.188 163.019 336.559 176.354 342.789 189.755C385.184 116.078 429.455 56.1202 474.032 32.8045C505.738 15.2141 584.554 35.2844 647.783 100.274C743.324 198.011 650.231 289.935 555.071 339.022C445.285 395.663 306.907 411.889 181.927 386.924L181.9 386.866L181.865 386.883Z" fill="#D0DEF6"/>
</g>
<defs>
<clipPath id="clip0_851_4413">
<rect width="490" height="110" fill="white"/>
</clipPath>
</defs>
</svg>
