<svg width="490" height="110" viewBox="0 0 490 110" fill="none" xmlns="http://www.w3.org/2000/svg">
<g clip-path="url(#clip0_851_4426)">
<path d="M-64.8599 369.518C-178.064 347.292 -327.927 287.298 -319.835 197.287C-316.45 159.354 -279.213 119.013 -236.693 86.3701C-163.094 31.812 -94.0145 3.2985 -49.2523 7.99694C-20.6543 10.8454 5.93664 27.0253 29.6275 55.6902C47.1883 77.2732 62.5951 103.901 77.0809 132.357C83.6848 145.321 90.0649 158.675 96.3044 172.096C138.762 98.309 183.099 38.2622 227.743 14.9117C259.496 -2.70491 338.429 17.3953 401.752 82.4822C497.436 180.364 404.205 272.426 308.902 321.586C198.952 378.311 60.3683 394.561 -64.7974 369.559L-64.8247 369.501L-64.8599 369.518Z" fill="#D0DEF6"/>
</g>
<defs>
<clipPath id="clip0_851_4426">
<rect width="490" height="110" fill="white"/>
</clipPath>
</defs>
</svg>
