<svg width="491" height="110" viewBox="0 0 491 110" fill="none" xmlns="http://www.w3.org/2000/svg">
<g clip-path="url(#clip0_851_4419)">
<path d="M-313.302 386.883C-426.338 364.691 -575.978 304.785 -567.897 214.909C-564.518 177.032 -527.336 136.751 -484.88 104.157C-411.39 49.6796 -342.413 21.2086 -297.718 25.9C-269.162 28.7442 -242.611 44.9001 -218.955 73.5224C-201.421 95.0732 -186.037 121.662 -171.573 150.075C-164.978 163.019 -158.608 176.354 -152.378 189.755C-109.983 116.078 -65.7122 56.1202 -21.1348 32.8045C10.5713 15.2141 89.3872 35.2844 152.616 100.274C248.157 198.011 155.064 289.935 59.904 339.022C-49.8823 395.663 -188.26 411.889 -313.24 386.924L-313.267 386.866L-313.302 386.883Z" fill="#D0DEF6"/>
<path d="M431.14 369.387C317.936 347.161 168.073 287.167 176.165 197.156C179.55 159.223 216.787 118.882 259.307 86.2392C332.906 31.6811 401.986 3.16764 446.748 7.86608C475.346 10.7145 501.937 26.8944 525.627 55.5594C543.188 77.1424 558.595 103.77 573.081 132.226C579.685 145.19 586.065 158.544 592.304 171.965C634.762 98.1781 679.099 38.1313 723.743 14.7808C755.496 -2.83577 834.429 17.2645 897.752 82.3513C993.436 180.233 900.205 272.295 804.902 321.455C694.952 378.18 556.368 394.43 431.203 369.428L431.175 369.37L431.14 369.387Z" fill="#D0DEF6"/>
</g>
<defs>
<clipPath id="clip0_851_4419">
<rect width="491" height="110" fill="white"/>
</clipPath>
</defs>
</svg>
