<svg width="648" height="669" viewBox="0 0 648 669" fill="none" xmlns="http://www.w3.org/2000/svg">
<g opacity="0.5" filter="url(#filter0_f_2119_1474)">
<g clip-path="url(#clip0_2119_1474)">
<path d="M317.951 179.408C263.147 104.918 168.427 16.754 105.925 53.384C79.5753 68.802 63.0503 109.59 53.9123 151.577C39.5043 223.591 42.4373 283.426 61.1423 314.278C72.9813 334.041 93.8013 347.793 122.682 355.175C144.334 360.532 168.908 362.604 194.492 363.382C206.149 363.74 218.013 363.803 229.877 363.74C190.884 419.744 162.496 472.415 160.821 512.767C158.899 541.812 200.45 592.178 269.287 615.851C372.962 651.78 407.855 552.714 410.931 466.808C414.487 367.696 378.908 261.654 318.002 179.439H317.951V179.408ZM593.558 263.912C586.795 252.558 574.892 244.756 558.29 240.52C545.918 237.467 531.809 236.284 517.153 235.785C510.468 235.583 503.681 235.552 496.891 235.598C519.244 203.485 535.47 173.334 536.444 150.191C537.52 133.543 511.702 101.429 472.241 87.849C412.83 67.276 394.929 127.282 393.164 176.464C391.151 233.216 411.531 294.016 446.384 341.065C477.797 383.722 532.03 434.228 567.843 413.281C582.953 404.451 592.429 381.059 597.608 357.044C605.838 315.788 604.215 281.495 593.468 263.818L593.519 263.896H593.546L593.558 263.912Z" fill="#E1AA2C"/>
</g>
</g>
<defs>
<filter id="filter0_f_2119_1474" x="3.05176e-05" y="0" width="647.636" height="668.636" filterUnits="userSpaceOnUse" color-interpolation-filters="sRGB">
<feFlood flood-opacity="0" result="BackgroundImageFix"/>
<feBlend mode="normal" in="SourceGraphic" in2="BackgroundImageFix" result="shape"/>
<feGaussianBlur stdDeviation="22.4091" result="effect1_foregroundBlur_2119_1474"/>
</filter>
<clipPath id="clip0_2119_1474">
<rect width="558" height="579" fill="white" transform="translate(44.8182 44.8182)"/>
</clipPath>
</defs>
</svg>
