<svg width="976" height="650" viewBox="0 0 976 650" fill="none" xmlns="http://www.w3.org/2000/svg">
<g opacity="0.04">
<path d="M-48.2399 39.1248V42.7816H-60.6626V52.9999H-64.5244V29.0773H-47.4539V32.7341H-60.6626V39.1248H-48.2399Z" fill="#003CA6"/>
<path d="M-19.6911 49.3432V52.9999H-36.7957V29.0773H-32.934V49.3432H-19.6911Z" fill="#003CA6"/>
<path d="M-0.143425 28.6331C7.20423 28.6331 12.3818 33.896 12.3818 41.0386C12.3818 48.1813 7.20423 53.4442 -0.143425 53.4442C-7.49109 53.4442 -12.6686 48.1813 -12.6686 41.0386C-12.6686 33.896 -7.49109 28.6331 -0.143425 28.6331ZM-0.143425 32.3411C-5.03047 32.3411 -8.61887 35.8782 -8.61887 41.0386C-8.61887 46.1991 -5.03047 49.7362 -0.143425 49.7362C4.74362 49.7362 8.33202 46.1991 8.33202 41.0386C8.33202 35.8782 4.74362 32.3411 -0.143425 32.3411Z" fill="#003CA6"/>
<path d="M55.8838 29.0773L48.5874 52.9999H43.8029L38.0786 34.3232L32.3542 52.9999H27.5697L20.2733 29.0773H24.3231L30.0132 48.5401L35.9255 29.0773H40.317L46.2122 48.5401L51.9195 29.0773H55.8838Z" fill="#003CA6"/>
<path d="M82.8598 49.3774V52.9999H65.4133V29.0773H82.6376V32.6999H69.2751V39.1419H82.1763V42.7645H69.2751V49.3774H82.8598Z" fill="#003CA6"/>
<path d="M94.1765 29.0773H104.019C109.521 29.0773 112.494 31.5379 112.494 35.9978C112.494 40.0646 109.384 42.7645 104.515 42.9354L112.392 52.9999H107.607L99.9863 42.9354H98.0383V52.9999H94.1765V29.0773ZM103.916 32.6999H98.0383V39.4324H103.916C107.026 39.4324 108.479 38.3046 108.479 35.9978C108.479 33.7252 106.941 32.6999 103.916 32.6999Z" fill="#003CA6"/>
<path d="M154.037 39.1248V42.7816H141.614V52.9999H137.753V29.0773H154.823V32.7341H141.614V39.1248H154.037Z" fill="#003CA6"/>
<path d="M165.481 29.0773H175.324C180.826 29.0773 183.799 31.5379 183.799 35.9978C183.799 40.0646 180.689 42.7645 175.819 42.9354L183.697 52.9999H178.912L171.291 42.9354H169.343V52.9999H165.481V29.0773ZM175.221 32.6999H169.343V39.4324H175.221C178.331 39.4324 179.783 38.3046 179.783 35.9978C179.783 33.7252 178.246 32.6999 175.221 32.6999Z" fill="#003CA6"/>
<path d="M198.24 29.0773V52.9999H194.378V29.0773H198.24Z" fill="#003CA6"/>
<path d="M210.192 29.0773H219.693C227.177 29.0773 232.115 33.8277 232.115 41.0386C232.115 48.2496 227.177 52.9999 219.693 52.9999H210.192V29.0773ZM219.693 32.7341H214.054V49.3432H219.693C225.314 49.3432 228.065 45.8573 228.065 41.0386C228.065 36.1687 225.314 32.7341 219.693 32.7341Z" fill="#003CA6"/>
<path d="M253.66 29.0773L263.109 52.9999H258.957L256.599 46.8997H245.765L243.407 52.9999H239.392L248.841 29.0773H253.66ZM251.182 32.922L247.184 43.2429H255.181L251.182 32.922Z" fill="#003CA6"/>
<path d="M289.58 29.0773L280.353 43.2942V52.9999H276.491V43.2259L267.195 29.0773H271.809L278.439 39.7912L285.086 29.0773H289.58Z" fill="#003CA6"/>
<path d="M-48.2399 103.777V107.433H-60.6626V117.652H-64.5244V93.7292H-47.4539V97.3859H-60.6626V103.777H-48.2399Z" fill="#003CA6"/>
<path d="M-19.6911 113.995V117.652H-36.7957V93.7292H-32.934V113.995H-19.6911Z" fill="#003CA6"/>
<path d="M-0.143425 93.2849C7.20423 93.2849 12.3818 98.5479 12.3818 105.691C12.3818 112.833 7.20423 118.096 -0.143425 118.096C-7.49109 118.096 -12.6686 112.833 -12.6686 105.691C-12.6686 98.5479 -7.49109 93.2849 -0.143425 93.2849ZM-0.143425 96.9929C-5.03047 96.9929 -8.61887 100.53 -8.61887 105.691C-8.61887 110.851 -5.03047 114.388 -0.143425 114.388C4.74362 114.388 8.33202 110.851 8.33202 105.691C8.33202 100.53 4.74362 96.9929 -0.143425 96.9929Z" fill="#003CA6"/>
<path d="M55.8838 93.7292L48.5874 117.652H43.8029L38.0786 98.9751L32.3542 117.652H27.5697L20.2733 93.7292H24.3231L30.0132 113.192L35.9255 93.7292H40.317L46.2122 113.192L51.9195 93.7292H55.8838Z" fill="#003CA6"/>
<path d="M82.8598 114.029V117.652H65.4133V93.7292H82.6376V97.3518H69.2751V103.794H82.1763V107.416H69.2751V114.029H82.8598Z" fill="#003CA6"/>
<path d="M94.1765 93.7292H104.019C109.521 93.7292 112.494 96.1898 112.494 100.65C112.494 104.717 109.384 107.416 104.515 107.587L112.392 117.652H107.607L99.9863 107.587H98.0383V117.652H94.1765V93.7292ZM103.916 97.3518H98.0383V104.084H103.916C107.026 104.084 108.479 102.956 108.479 100.65C108.479 98.377 106.941 97.3518 103.916 97.3518Z" fill="#003CA6"/>
<path d="M154.037 103.777V107.433H141.614V117.652H137.753V93.7292H154.823V97.3859H141.614V103.777H154.037Z" fill="#003CA6"/>
<path d="M165.481 93.7292H175.324C180.826 93.7292 183.799 96.1898 183.799 100.65C183.799 104.717 180.689 107.416 175.819 107.587L183.697 117.652H178.912L171.291 107.587H169.343V117.652H165.481V93.7292ZM175.221 97.3518H169.343V104.084H175.221C178.331 104.084 179.783 102.956 179.783 100.65C179.783 98.377 178.246 97.3518 175.221 97.3518Z" fill="#003CA6"/>
<path d="M198.24 93.7292V117.652H194.378V93.7292H198.24Z" fill="#003CA6"/>
<path d="M210.192 93.7292H219.693C227.177 93.7292 232.115 98.4796 232.115 105.691C232.115 112.901 227.177 117.652 219.693 117.652H210.192V93.7292ZM219.693 97.3859H214.054V113.995H219.693C225.314 113.995 228.065 110.509 228.065 105.691C228.065 100.821 225.314 97.3859 219.693 97.3859Z" fill="#003CA6"/>
<path d="M253.66 93.7292L263.109 117.652H258.957L256.599 111.552H245.765L243.407 117.652H239.392L248.841 93.7292H253.66ZM251.182 97.5739L247.184 107.895H255.181L251.182 97.5739Z" fill="#003CA6"/>
<path d="M289.58 93.7292L280.353 107.946V117.652H276.491V107.878L267.195 93.7292H271.809L278.439 104.443L285.086 93.7292H289.58Z" fill="#003CA6"/>
<path d="M-48.2399 168.429V172.085H-60.6626V182.304H-64.5244V158.381H-47.4539V162.038H-60.6626V168.429H-48.2399Z" fill="#003CA6"/>
<path d="M-19.6911 178.647V182.304H-36.7957V158.381H-32.934V178.647H-19.6911Z" fill="#003CA6"/>
<path d="M-0.143425 157.937C7.20423 157.937 12.3818 163.2 12.3818 170.342C12.3818 177.485 7.20423 182.748 -0.143425 182.748C-7.49109 182.748 -12.6686 177.485 -12.6686 170.342C-12.6686 163.2 -7.49109 157.937 -0.143425 157.937ZM-0.143425 161.645C-5.03047 161.645 -8.61887 165.182 -8.61887 170.342C-8.61887 175.503 -5.03047 179.04 -0.143425 179.04C4.74362 179.04 8.33202 175.503 8.33202 170.342C8.33202 165.182 4.74362 161.645 -0.143425 161.645Z" fill="#003CA6"/>
<path d="M55.8838 158.381L48.5874 182.304H43.8029L38.0786 163.627L32.3542 182.304H27.5697L20.2733 158.381H24.3231L30.0132 177.844L35.9255 158.381H40.317L46.2122 177.844L51.9195 158.381H55.8838Z" fill="#003CA6"/>
<path d="M82.8598 178.681V182.304H65.4133V158.381H82.6376V162.004H69.2751V168.446H82.1763V172.068H69.2751V178.681H82.8598Z" fill="#003CA6"/>
<path d="M94.1765 158.381H104.019C109.521 158.381 112.494 160.842 112.494 165.302C112.494 169.368 109.384 172.068 104.515 172.239L112.392 182.304H107.607L99.9863 172.239H98.0383V182.304H94.1765V158.381ZM103.916 162.004H98.0383V168.736H103.916C107.026 168.736 108.479 167.608 108.479 165.302C108.479 163.029 106.941 162.004 103.916 162.004Z" fill="#003CA6"/>
<path d="M154.037 168.429V172.085H141.614V182.304H137.753V158.381H154.823V162.038H141.614V168.429H154.037Z" fill="#003CA6"/>
<path d="M165.481 158.381H175.324C180.826 158.381 183.799 160.842 183.799 165.302C183.799 169.368 180.689 172.068 175.819 172.239L183.697 182.304H178.912L171.291 172.239H169.343V182.304H165.481V158.381ZM175.221 162.004H169.343V168.736H175.221C178.331 168.736 179.783 167.608 179.783 165.302C179.783 163.029 178.246 162.004 175.221 162.004Z" fill="#003CA6"/>
<path d="M198.24 158.381V182.304H194.378V158.381H198.24Z" fill="#003CA6"/>
<path d="M210.192 158.381H219.693C227.177 158.381 232.115 163.131 232.115 170.342C232.115 177.553 227.177 182.304 219.693 182.304H210.192V158.381ZM219.693 162.038H214.054V178.647H219.693C225.314 178.647 228.065 175.161 228.065 170.342C228.065 165.472 225.314 162.038 219.693 162.038Z" fill="#003CA6"/>
<path d="M253.66 158.381L263.109 182.304H258.957L256.599 176.203H245.765L243.407 182.304H239.392L248.841 158.381H253.66ZM251.182 162.226L247.184 172.547H255.181L251.182 162.226Z" fill="#003CA6"/>
<path d="M289.58 158.381L280.353 172.598V182.304H276.491V172.53L267.195 158.381H271.809L278.439 169.095L285.086 158.381H289.58Z" fill="#003CA6"/>
<path d="M-48.2399 233.08V236.737H-60.6626V246.956H-64.5244V223.033H-47.4539V226.69H-60.6626V233.08H-48.2399Z" fill="#003CA6"/>
<path d="M-19.6911 243.299V246.956H-36.7957V223.033H-32.934V243.299H-19.6911Z" fill="#003CA6"/>
<path d="M-0.143425 222.589C7.20423 222.589 12.3818 227.852 12.3818 234.994C12.3818 242.137 7.20423 247.4 -0.143425 247.4C-7.49109 247.4 -12.6686 242.137 -12.6686 234.994C-12.6686 227.852 -7.49109 222.589 -0.143425 222.589ZM-0.143425 226.297C-5.03047 226.297 -8.61887 229.834 -8.61887 234.994C-8.61887 240.155 -5.03047 243.692 -0.143425 243.692C4.74362 243.692 8.33202 240.155 8.33202 234.994C8.33202 229.834 4.74362 226.297 -0.143425 226.297Z" fill="#003CA6"/>
<path d="M55.8838 223.033L48.5874 246.956H43.8029L38.0786 228.279L32.3542 246.956H27.5697L20.2733 223.033H24.3231L30.0132 242.496L35.9255 223.033H40.317L46.2122 242.496L51.9195 223.033H55.8838Z" fill="#003CA6"/>
<path d="M82.8598 243.333V246.956H65.4133V223.033H82.6376V226.656H69.2751V233.098H82.1763V236.72H69.2751V243.333H82.8598Z" fill="#003CA6"/>
<path d="M94.1765 223.033H104.019C109.521 223.033 112.494 225.494 112.494 229.953C112.494 234.02 109.384 236.72 104.515 236.891L112.392 246.956H107.607L99.9863 236.891H98.0383V246.956H94.1765V223.033ZM103.916 226.656H98.0383V233.388H103.916C107.026 233.388 108.479 232.26 108.479 229.953C108.479 227.681 106.941 226.656 103.916 226.656Z" fill="#003CA6"/>
<path d="M154.037 233.08V236.737H141.614V246.956H137.753V223.033H154.823V226.69H141.614V233.08H154.037Z" fill="#003CA6"/>
<path d="M165.481 223.033H175.324C180.826 223.033 183.799 225.494 183.799 229.953C183.799 234.02 180.689 236.72 175.819 236.891L183.697 246.956H178.912L171.291 236.891H169.343V246.956H165.481V223.033ZM175.221 226.656H169.343V233.388H175.221C178.331 233.388 179.783 232.26 179.783 229.953C179.783 227.681 178.246 226.656 175.221 226.656Z" fill="#003CA6"/>
<path d="M198.24 223.033V246.956H194.378V223.033H198.24Z" fill="#003CA6"/>
<path d="M210.192 223.033H219.693C227.177 223.033 232.115 227.783 232.115 234.994C232.115 242.205 227.177 246.956 219.693 246.956H210.192V223.033ZM219.693 226.69H214.054V243.299H219.693C225.314 243.299 228.065 239.813 228.065 234.994C228.065 230.124 225.314 226.69 219.693 226.69Z" fill="#003CA6"/>
<path d="M253.66 223.033L263.109 246.956H258.957L256.599 240.855H245.765L243.407 246.956H239.392L248.841 223.033H253.66ZM251.182 226.878L247.184 237.199H255.181L251.182 226.878Z" fill="#003CA6"/>
<path d="M289.58 223.033L280.353 237.25V246.956H276.491V237.181L267.195 223.033H271.809L278.439 233.747L285.086 223.033H289.58Z" fill="#003CA6"/>
<path d="M-48.2399 297.732V301.389H-60.6626V311.607H-64.5244V287.685H-47.4539V291.342H-60.6626V297.732H-48.2399Z" fill="#003CA6"/>
<path d="M-19.6911 307.951V311.607H-36.7957V287.685H-32.934V307.951H-19.6911Z" fill="#003CA6"/>
<path d="M-0.143425 287.241C7.20423 287.241 12.3818 292.504 12.3818 299.646C12.3818 306.789 7.20423 312.052 -0.143425 312.052C-7.49109 312.052 -12.6686 306.789 -12.6686 299.646C-12.6686 292.504 -7.49109 287.241 -0.143425 287.241ZM-0.143425 290.949C-5.03047 290.949 -8.61887 294.486 -8.61887 299.646C-8.61887 304.807 -5.03047 308.344 -0.143425 308.344C4.74362 308.344 8.33202 304.807 8.33202 299.646C8.33202 294.486 4.74362 290.949 -0.143425 290.949Z" fill="#003CA6"/>
<path d="M55.8838 287.685L48.5874 311.607H43.8029L38.0786 292.931L32.3542 311.607H27.5697L20.2733 287.685H24.3231L30.0132 307.148L35.9255 287.685H40.317L46.2122 307.148L51.9195 287.685H55.8838Z" fill="#003CA6"/>
<path d="M82.8598 307.985V311.607H65.4133V287.685H82.6376V291.307H69.2751V297.749H82.1763V301.372H69.2751V307.985H82.8598Z" fill="#003CA6"/>
<path d="M94.1765 287.685H104.019C109.521 287.685 112.494 290.145 112.494 294.605C112.494 298.672 109.384 301.372 104.515 301.543L112.392 311.607H107.607L99.9863 301.543H98.0383V311.607H94.1765V287.685ZM103.916 291.307H98.0383V298.04H103.916C107.026 298.04 108.479 296.912 108.479 294.605C108.479 292.333 106.941 291.307 103.916 291.307Z" fill="#003CA6"/>
<path d="M154.037 297.732V301.389H141.614V311.607H137.753V287.685H154.823V291.342H141.614V297.732H154.037Z" fill="#003CA6"/>
<path d="M165.481 287.685H175.324C180.826 287.685 183.799 290.145 183.799 294.605C183.799 298.672 180.689 301.372 175.819 301.543L183.697 311.607H178.912L171.291 301.543H169.343V311.607H165.481V287.685ZM175.221 291.307H169.343V298.04H175.221C178.331 298.04 179.783 296.912 179.783 294.605C179.783 292.333 178.246 291.307 175.221 291.307Z" fill="#003CA6"/>
<path d="M198.24 287.685V311.607H194.378V287.685H198.24Z" fill="#003CA6"/>
<path d="M210.192 287.685H219.693C227.177 287.685 232.115 292.435 232.115 299.646C232.115 306.857 227.177 311.607 219.693 311.607H210.192V287.685ZM219.693 291.342H214.054V307.951H219.693C225.314 307.951 228.065 304.465 228.065 299.646C228.065 294.776 225.314 291.342 219.693 291.342Z" fill="#003CA6"/>
<path d="M253.66 287.685L263.109 311.607H258.957L256.599 305.507H245.765L243.407 311.607H239.392L248.841 287.685H253.66ZM251.182 291.53L247.184 301.85H255.181L251.182 291.53Z" fill="#003CA6"/>
<path d="M289.58 287.685L280.353 301.902V311.607H276.491V301.833L267.195 287.685H271.809L278.439 298.399L285.086 287.685H289.58Z" fill="#003CA6"/>
<path d="M-48.2399 362.384V366.041H-60.6626V376.259H-64.5244V352.337H-47.4539V355.993H-60.6626V362.384H-48.2399Z" fill="#003CA6"/>
<path d="M-19.6911 372.603V376.259H-36.7957V352.337H-32.934V372.603H-19.6911Z" fill="#003CA6"/>
<path d="M-0.143425 351.892C7.20423 351.892 12.3818 357.155 12.3818 364.298C12.3818 371.441 7.20423 376.704 -0.143425 376.704C-7.49109 376.704 -12.6686 371.441 -12.6686 364.298C-12.6686 357.155 -7.49109 351.892 -0.143425 351.892ZM-0.143425 355.6C-5.03047 355.6 -8.61887 359.138 -8.61887 364.298C-8.61887 369.458 -5.03047 372.996 -0.143425 372.996C4.74362 372.996 8.33202 369.458 8.33202 364.298C8.33202 359.138 4.74362 355.6 -0.143425 355.6Z" fill="#003CA6"/>
<path d="M55.8838 352.337L48.5874 376.259H43.8029L38.0786 357.583L32.3542 376.259H27.5697L20.2733 352.337H24.3231L30.0132 371.799L35.9255 352.337H40.317L46.2122 371.799L51.9195 352.337H55.8838Z" fill="#003CA6"/>
<path d="M82.8598 372.637V376.259H65.4133V352.337H82.6376V355.959H69.2751V362.401H82.1763V366.024H69.2751V372.637H82.8598Z" fill="#003CA6"/>
<path d="M94.1765 352.337H104.019C109.521 352.337 112.494 354.797 112.494 359.257C112.494 363.324 109.384 366.024 104.515 366.195L112.392 376.259H107.607L99.9863 366.195H98.0383V376.259H94.1765V352.337ZM103.916 355.959H98.0383V362.692H103.916C107.026 362.692 108.479 361.564 108.479 359.257C108.479 356.984 106.941 355.959 103.916 355.959Z" fill="#003CA6"/>
<path d="M154.037 362.384V366.041H141.614V376.259H137.753V352.337H154.823V355.993H141.614V362.384H154.037Z" fill="#003CA6"/>
<path d="M165.481 352.337H175.324C180.826 352.337 183.799 354.797 183.799 359.257C183.799 363.324 180.689 366.024 175.819 366.195L183.697 376.259H178.912L171.291 366.195H169.343V376.259H165.481V352.337ZM175.221 355.959H169.343V362.692H175.221C178.331 362.692 179.783 361.564 179.783 359.257C179.783 356.984 178.246 355.959 175.221 355.959Z" fill="#003CA6"/>
<path d="M198.24 352.337V376.259H194.378V352.337H198.24Z" fill="#003CA6"/>
<path d="M210.192 352.337H219.693C227.177 352.337 232.115 357.087 232.115 364.298C232.115 371.509 227.177 376.259 219.693 376.259H210.192V352.337ZM219.693 355.993H214.054V372.603H219.693C225.314 372.603 228.065 369.117 228.065 364.298C228.065 359.428 225.314 355.993 219.693 355.993Z" fill="#003CA6"/>
<path d="M253.66 352.337L263.109 376.259H258.957L256.599 370.159H245.765L243.407 376.259H239.392L248.841 352.337H253.66ZM251.182 356.181L247.184 366.502H255.181L251.182 356.181Z" fill="#003CA6"/>
<path d="M289.58 352.337L280.353 366.554V376.259H276.491V366.485L267.195 352.337H271.809L278.439 363.051L285.086 352.337H289.58Z" fill="#003CA6"/>
<path d="M-48.2399 427.036V430.693H-60.6626V440.911H-64.5244V416.989H-47.4539V420.645H-60.6626V427.036H-48.2399Z" fill="#003CA6"/>
<path d="M-19.6911 437.254V440.911H-36.7957V416.989H-32.934V437.254H-19.6911Z" fill="#003CA6"/>
<path d="M-0.143425 416.544C7.20423 416.544 12.3818 421.807 12.3818 428.95C12.3818 436.092 7.20423 441.355 -0.143425 441.355C-7.49109 441.355 -12.6686 436.092 -12.6686 428.95C-12.6686 421.807 -7.49109 416.544 -0.143425 416.544ZM-0.143425 420.252C-5.03047 420.252 -8.61887 423.789 -8.61887 428.95C-8.61887 434.11 -5.03047 437.647 -0.143425 437.647C4.74362 437.647 8.33202 434.11 8.33202 428.95C8.33202 423.789 4.74362 420.252 -0.143425 420.252Z" fill="#003CA6"/>
<path d="M55.8838 416.989L48.5874 440.911H43.8029L38.0786 422.234L32.3542 440.911H27.5697L20.2733 416.989H24.3231L30.0132 436.451L35.9255 416.989H40.317L46.2122 436.451L51.9195 416.989H55.8838Z" fill="#003CA6"/>
<path d="M82.8598 437.289V440.911H65.4133V416.989H82.6376V420.611H69.2751V427.053H82.1763V430.676H69.2751V437.289H82.8598Z" fill="#003CA6"/>
<path d="M94.1765 416.989H104.019C109.521 416.989 112.494 419.449 112.494 423.909C112.494 427.976 109.384 430.676 104.515 430.847L112.392 440.911H107.607L99.9863 430.847H98.0383V440.911H94.1765V416.989ZM103.916 420.611H98.0383V427.344H103.916C107.026 427.344 108.479 426.216 108.479 423.909C108.479 421.636 106.941 420.611 103.916 420.611Z" fill="#003CA6"/>
<path d="M154.037 427.036V430.693H141.614V440.911H137.753V416.989H154.823V420.645H141.614V427.036H154.037Z" fill="#003CA6"/>
<path d="M165.481 416.989H175.324C180.826 416.989 183.799 419.449 183.799 423.909C183.799 427.976 180.689 430.676 175.819 430.847L183.697 440.911H178.912L171.291 430.847H169.343V440.911H165.481V416.989ZM175.221 420.611H169.343V427.344H175.221C178.331 427.344 179.783 426.216 179.783 423.909C179.783 421.636 178.246 420.611 175.221 420.611Z" fill="#003CA6"/>
<path d="M198.24 416.989V440.911H194.378V416.989H198.24Z" fill="#003CA6"/>
<path d="M210.192 416.989H219.693C227.177 416.989 232.115 421.739 232.115 428.95C232.115 436.161 227.177 440.911 219.693 440.911H210.192V416.989ZM219.693 420.645H214.054V437.254H219.693C225.314 437.254 228.065 433.769 228.065 428.95C228.065 424.08 225.314 420.645 219.693 420.645Z" fill="#003CA6"/>
<path d="M253.66 416.989L263.109 440.911H258.957L256.599 434.811H245.765L243.407 440.911H239.392L248.841 416.989H253.66ZM251.182 420.833L247.184 431.154H255.181L251.182 420.833Z" fill="#003CA6"/>
<path d="M289.58 416.989L280.353 431.205V440.911H276.491V431.137L267.195 416.989H271.809L278.439 427.702L285.086 416.989H289.58Z" fill="#003CA6"/>
<path d="M-48.2399 491.688V495.345H-60.6626V505.563H-64.5244V481.64H-47.4539V485.297H-60.6626V491.688H-48.2399Z" fill="#003CA6"/>
<path d="M-19.6911 501.906V505.563H-36.7957V481.64H-32.934V501.906H-19.6911Z" fill="#003CA6"/>
<path d="M-0.143425 481.196C7.20423 481.196 12.3818 486.459 12.3818 493.602C12.3818 500.744 7.20423 506.007 -0.143425 506.007C-7.49109 506.007 -12.6686 500.744 -12.6686 493.602C-12.6686 486.459 -7.49109 481.196 -0.143425 481.196ZM-0.143425 484.904C-5.03047 484.904 -8.61887 488.441 -8.61887 493.602C-8.61887 498.762 -5.03047 502.299 -0.143425 502.299C4.74362 502.299 8.33202 498.762 8.33202 493.602C8.33202 488.441 4.74362 484.904 -0.143425 484.904Z" fill="#003CA6"/>
<path d="M55.8838 481.64L48.5874 505.563H43.8029L38.0786 486.886L32.3542 505.563H27.5697L20.2733 481.64H24.3231L30.0132 501.103L35.9255 481.64H40.317L46.2122 501.103L51.9195 481.64H55.8838Z" fill="#003CA6"/>
<path d="M82.8598 501.94V505.563H65.4133V481.64H82.6376V485.263H69.2751V491.705H82.1763V495.328H69.2751V501.94H82.8598Z" fill="#003CA6"/>
<path d="M94.1765 481.64H104.019C109.521 481.64 112.494 484.101 112.494 488.561C112.494 492.628 109.384 495.328 104.515 495.498L112.392 505.563H107.607L99.9863 495.498H98.0383V505.563H94.1765V481.64ZM103.916 485.263H98.0383V491.995H103.916C107.026 491.995 108.479 490.868 108.479 488.561C108.479 486.288 106.941 485.263 103.916 485.263Z" fill="#003CA6"/>
<path d="M154.037 491.688V495.345H141.614V505.563H137.753V481.64H154.823V485.297H141.614V491.688H154.037Z" fill="#003CA6"/>
<path d="M165.481 481.64H175.324C180.826 481.64 183.799 484.101 183.799 488.561C183.799 492.628 180.689 495.328 175.819 495.498L183.697 505.563H178.912L171.291 495.498H169.343V505.563H165.481V481.64ZM175.221 485.263H169.343V491.995H175.221C178.331 491.995 179.783 490.868 179.783 488.561C179.783 486.288 178.246 485.263 175.221 485.263Z" fill="#003CA6"/>
<path d="M198.24 481.64V505.563H194.378V481.64H198.24Z" fill="#003CA6"/>
<path d="M210.192 481.64H219.693C227.177 481.64 232.115 486.391 232.115 493.602C232.115 500.813 227.177 505.563 219.693 505.563H210.192V481.64ZM219.693 485.297H214.054V501.906H219.693C225.314 501.906 228.065 498.42 228.065 493.602C228.065 488.732 225.314 485.297 219.693 485.297Z" fill="#003CA6"/>
<path d="M253.66 481.64L263.109 505.563H258.957L256.599 499.463H245.765L243.407 505.563H239.392L248.841 481.64H253.66ZM251.182 485.485L247.184 495.806H255.181L251.182 485.485Z" fill="#003CA6"/>
<path d="M289.58 481.64L280.353 495.857V505.563H276.491V495.789L267.195 481.64H271.809L278.439 492.354L285.086 481.64H289.58Z" fill="#003CA6"/>
<path d="M-48.2399 556.34V559.996H-60.6626V570.215H-64.5244V546.292H-47.4539V549.949H-60.6626V556.34H-48.2399Z" fill="#003CA6"/>
<path d="M-19.6911 566.558V570.215H-36.7957V546.292H-32.934V566.558H-19.6911Z" fill="#003CA6"/>
<path d="M-0.143425 545.848C7.20423 545.848 12.3818 551.111 12.3818 558.254C12.3818 565.396 7.20423 570.659 -0.143425 570.659C-7.49109 570.659 -12.6686 565.396 -12.6686 558.254C-12.6686 551.111 -7.49109 545.848 -0.143425 545.848ZM-0.143425 549.556C-5.03047 549.556 -8.61887 553.093 -8.61887 558.254C-8.61887 563.414 -5.03047 566.951 -0.143425 566.951C4.74362 566.951 8.33202 563.414 8.33202 558.254C8.33202 553.093 4.74362 549.556 -0.143425 549.556Z" fill="#003CA6"/>
<path d="M55.8838 546.292L48.5874 570.215H43.8029L38.0786 551.538L32.3542 570.215H27.5697L20.2733 546.292H24.3231L30.0132 565.755L35.9255 546.292H40.317L46.2122 565.755L51.9195 546.292H55.8838Z" fill="#003CA6"/>
<path d="M82.8598 566.592V570.215H65.4133V546.292H82.6376V549.915H69.2751V556.357H82.1763V559.979H69.2751V566.592H82.8598Z" fill="#003CA6"/>
<path d="M94.1765 546.292H104.019C109.521 546.292 112.494 548.753 112.494 553.213C112.494 557.28 109.384 559.979 104.515 560.15L112.392 570.215H107.607L99.9863 560.15H98.0383V570.215H94.1765V546.292ZM103.916 549.915H98.0383V556.647H103.916C107.026 556.647 108.479 555.52 108.479 553.213C108.479 550.94 106.941 549.915 103.916 549.915Z" fill="#003CA6"/>
<path d="M154.037 556.34V559.996H141.614V570.215H137.753V546.292H154.823V549.949H141.614V556.34H154.037Z" fill="#003CA6"/>
<path d="M165.481 546.292H175.324C180.826 546.292 183.799 548.753 183.799 553.213C183.799 557.28 180.689 559.979 175.819 560.15L183.697 570.215H178.912L171.291 560.15H169.343V570.215H165.481V546.292ZM175.221 549.915H169.343V556.647H175.221C178.331 556.647 179.783 555.52 179.783 553.213C179.783 550.94 178.246 549.915 175.221 549.915Z" fill="#003CA6"/>
<path d="M198.24 546.292V570.215H194.378V546.292H198.24Z" fill="#003CA6"/>
<path d="M210.192 546.292H219.693C227.177 546.292 232.115 551.043 232.115 558.254C232.115 565.464 227.177 570.215 219.693 570.215H210.192V546.292ZM219.693 549.949H214.054V566.558H219.693C225.314 566.558 228.065 563.072 228.065 558.254C228.065 553.384 225.314 549.949 219.693 549.949Z" fill="#003CA6"/>
<path d="M253.66 546.292L263.109 570.215H258.957L256.599 564.115H245.765L243.407 570.215H239.392L248.841 546.292H253.66ZM251.182 550.137L247.184 560.458H255.181L251.182 550.137Z" fill="#003CA6"/>
<path d="M289.58 546.292L280.353 560.509V570.215H276.491V560.441L267.195 546.292H271.809L278.439 557.006L285.086 546.292H289.58Z" fill="#003CA6"/>
<path d="M-48.2399 620.992V624.648H-60.6626V634.867H-64.5244V610.944H-47.4539V614.601H-60.6626V620.992H-48.2399Z" fill="#003CA6"/>
<path d="M-19.6911 631.21V634.867H-36.7957V610.944H-32.934V631.21H-19.6911Z" fill="#003CA6"/>
<path d="M-0.143425 610.5C7.20423 610.5 12.3818 615.763 12.3818 622.905C12.3818 630.048 7.20423 635.311 -0.143425 635.311C-7.49109 635.311 -12.6686 630.048 -12.6686 622.905C-12.6686 615.763 -7.49109 610.5 -0.143425 610.5ZM-0.143425 614.208C-5.03047 614.208 -8.61887 617.745 -8.61887 622.905C-8.61887 628.066 -5.03047 631.603 -0.143425 631.603C4.74362 631.603 8.33202 628.066 8.33202 622.905C8.33202 617.745 4.74362 614.208 -0.143425 614.208Z" fill="#003CA6"/>
<path d="M55.8838 610.944L48.5874 634.867H43.8029L38.0786 616.19L32.3542 634.867H27.5697L20.2733 610.944H24.3231L30.0132 630.407L35.9255 610.944H40.317L46.2122 630.407L51.9195 610.944H55.8838Z" fill="#003CA6"/>
<path d="M82.8598 631.244V634.867H65.4133V610.944H82.6376V614.567H69.2751V621.009H82.1763V624.631H69.2751V631.244H82.8598Z" fill="#003CA6"/>
<path d="M94.1765 610.944H104.019C109.521 610.944 112.494 613.405 112.494 617.865C112.494 621.931 109.384 624.631 104.515 624.802L112.392 634.867H107.607L99.9863 624.802H98.0383V634.867H94.1765V610.944ZM103.916 614.567H98.0383V621.299H103.916C107.026 621.299 108.479 620.171 108.479 617.865C108.479 615.592 106.941 614.567 103.916 614.567Z" fill="#003CA6"/>
<path d="M154.037 620.992V624.648H141.614V634.867H137.753V610.944H154.823V614.601H141.614V620.992H154.037Z" fill="#003CA6"/>
<path d="M165.481 610.944H175.324C180.826 610.944 183.799 613.405 183.799 617.865C183.799 621.931 180.689 624.631 175.819 624.802L183.697 634.867H178.912L171.291 624.802H169.343V634.867H165.481V610.944ZM175.221 614.567H169.343V621.299H175.221C178.331 621.299 179.783 620.171 179.783 617.865C179.783 615.592 178.246 614.567 175.221 614.567Z" fill="#003CA6"/>
<path d="M198.24 610.944V634.867H194.378V610.944H198.24Z" fill="#003CA6"/>
<path d="M210.192 610.944H219.693C227.177 610.944 232.115 615.694 232.115 622.905C232.115 630.116 227.177 634.867 219.693 634.867H210.192V610.944ZM219.693 614.601H214.054V631.21H219.693C225.314 631.21 228.065 627.724 228.065 622.905C228.065 618.035 225.314 614.601 219.693 614.601Z" fill="#003CA6"/>
<path d="M253.66 610.944L263.109 634.867H258.957L256.599 628.766H245.765L243.407 634.867H239.392L248.841 610.944H253.66ZM251.182 614.789L247.184 625.11H255.181L251.182 614.789Z" fill="#003CA6"/>
<path d="M289.58 610.944L280.353 625.161V634.867H276.491V625.093L267.195 610.944H271.809L278.439 621.658L285.086 610.944H289.58Z" fill="#003CA6"/>
<path d="M-48.2399 685.643V689.3H-60.6626V699.519H-64.5244V675.596H-47.4539V679.253H-60.6626V685.643H-48.2399Z" fill="#003CA6"/>
<path d="M-19.6911 695.862V699.519H-36.7957V675.596H-32.934V695.862H-19.6911Z" fill="#003CA6"/>
<path d="M-0.143425 675.152C7.20423 675.152 12.3818 680.415 12.3818 687.557C12.3818 694.7 7.20423 699.963 -0.143425 699.963C-7.49109 699.963 -12.6686 694.7 -12.6686 687.557C-12.6686 680.415 -7.49109 675.152 -0.143425 675.152ZM-0.143425 678.86C-5.03047 678.86 -8.61887 682.397 -8.61887 687.557C-8.61887 692.718 -5.03047 696.255 -0.143425 696.255C4.74362 696.255 8.33202 692.718 8.33202 687.557C8.33202 682.397 4.74362 678.86 -0.143425 678.86Z" fill="#003CA6"/>
<path d="M55.8838 675.596L48.5874 699.519H43.8029L38.0786 680.842L32.3542 699.519H27.5697L20.2733 675.596H24.3231L30.0132 695.059L35.9255 675.596H40.317L46.2122 695.059L51.9195 675.596H55.8838Z" fill="#003CA6"/>
<path d="M82.8598 695.896V699.519H65.4133V675.596H82.6376V679.219H69.2751V685.661H82.1763V689.283H69.2751V695.896H82.8598Z" fill="#003CA6"/>
<path d="M94.1765 675.596H104.019C109.521 675.596 112.494 678.057 112.494 682.516C112.494 686.583 109.384 689.283 104.515 689.454L112.392 699.519H107.607L99.9863 689.454H98.0383V699.519H94.1765V675.596ZM103.916 679.219H98.0383V685.951H103.916C107.026 685.951 108.479 684.823 108.479 682.516C108.479 680.244 106.941 679.219 103.916 679.219Z" fill="#003CA6"/>
<path d="M154.037 685.643V689.3H141.614V699.519H137.753V675.596H154.823V679.253H141.614V685.643H154.037Z" fill="#003CA6"/>
<path d="M165.481 675.596H175.324C180.826 675.596 183.799 678.057 183.799 682.516C183.799 686.583 180.689 689.283 175.819 689.454L183.697 699.519H178.912L171.291 689.454H169.343V699.519H165.481V675.596ZM175.221 679.219H169.343V685.951H175.221C178.331 685.951 179.783 684.823 179.783 682.516C179.783 680.244 178.246 679.219 175.221 679.219Z" fill="#003CA6"/>
<path d="M198.24 675.596V699.519H194.378V675.596H198.24Z" fill="#003CA6"/>
<path d="M210.192 675.596H219.693C227.177 675.596 232.115 680.346 232.115 687.557C232.115 694.768 227.177 699.519 219.693 699.519H210.192V675.596ZM219.693 679.253H214.054V695.862H219.693C225.314 695.862 228.065 692.376 228.065 687.557C228.065 682.687 225.314 679.253 219.693 679.253Z" fill="#003CA6"/>
<path d="M253.66 675.596L263.109 699.519H258.957L256.599 693.418H245.765L243.407 699.519H239.392L248.841 675.596H253.66ZM251.182 679.441L247.184 689.762H255.181L251.182 679.441Z" fill="#003CA6"/>
<path d="M289.58 675.596L280.353 689.813V699.519H276.491V689.744L267.195 675.596H271.809L278.439 686.31L285.086 675.596H289.58Z" fill="#003CA6"/>
<path d="M332.76 39.1248V42.7816H320.337V52.9999H316.476V29.0773H333.546V32.7341H320.337V39.1248H332.76Z" fill="#003CA6"/>
<path d="M361.309 49.3432V52.9999H344.204V29.0773H348.066V49.3432H361.309Z" fill="#003CA6"/>
<path d="M380.857 28.6331C388.204 28.6331 393.382 33.896 393.382 41.0386C393.382 48.1813 388.204 53.4442 380.857 53.4442C373.509 53.4442 368.331 48.1813 368.331 41.0386C368.331 33.896 373.509 28.6331 380.857 28.6331ZM380.857 32.3411C375.97 32.3411 372.381 35.8782 372.381 41.0386C372.381 46.1991 375.97 49.7362 380.857 49.7362C385.744 49.7362 389.332 46.1991 389.332 41.0386C389.332 35.8782 385.744 32.3411 380.857 32.3411Z" fill="#003CA6"/>
<path d="M436.884 29.0773L429.587 52.9999H424.803L419.079 34.3232L413.354 52.9999H408.57L401.273 29.0773H405.323L411.013 48.5401L416.926 29.0773H421.317L427.212 48.5401L432.919 29.0773H436.884Z" fill="#003CA6"/>
<path d="M463.86 49.3774V52.9999H446.413V29.0773H463.638V32.6999H450.275V39.1419H463.176V42.7645H450.275V49.3774H463.86Z" fill="#003CA6"/>
<path d="M475.177 29.0773H485.019C490.521 29.0773 493.494 31.5379 493.494 35.9978C493.494 40.0646 490.384 42.7645 485.515 42.9354L493.392 52.9999H488.607L480.986 42.9354H479.038V52.9999H475.177V29.0773ZM484.916 32.6999H479.038V39.4324H484.916C488.026 39.4324 489.479 38.3046 489.479 35.9978C489.479 33.7252 487.941 32.6999 484.916 32.6999Z" fill="#003CA6"/>
<path d="M535.037 39.1248V42.7816H522.614V52.9999H518.753V29.0773H535.823V32.7341H522.614V39.1248H535.037Z" fill="#003CA6"/>
<path d="M546.481 29.0773H556.324C561.826 29.0773 564.799 31.5379 564.799 35.9978C564.799 40.0646 561.689 42.7645 556.819 42.9354L564.696 52.9999H559.912L552.291 42.9354H550.343V52.9999H546.481V29.0773ZM556.221 32.6999H550.343V39.4324H556.221C559.331 39.4324 560.783 38.3046 560.783 35.9978C560.783 33.7252 559.246 32.6999 556.221 32.6999Z" fill="#003CA6"/>
<path d="M579.24 29.0773V52.9999H575.378V29.0773H579.24Z" fill="#003CA6"/>
<path d="M591.192 29.0773H600.693C608.177 29.0773 613.115 33.8277 613.115 41.0386C613.115 48.2496 608.177 52.9999 600.693 52.9999H591.192V29.0773ZM600.693 32.7341H595.054V49.3432H600.693C606.314 49.3432 609.065 45.8573 609.065 41.0386C609.065 36.1687 606.314 32.7341 600.693 32.7341Z" fill="#003CA6"/>
<path d="M634.66 29.0773L644.109 52.9999H639.957L637.599 46.8997H626.765L624.407 52.9999H620.392L629.841 29.0773H634.66ZM632.182 32.922L628.184 43.2429H636.181L632.182 32.922Z" fill="#003CA6"/>
<path d="M670.58 29.0773L661.353 43.2942V52.9999H657.491V43.2259L648.195 29.0773H652.809L659.439 39.7912L666.086 29.0773H670.58Z" fill="#003CA6"/>
<path d="M332.76 103.777V107.433H320.337V117.652H316.476V93.7292H333.546V97.3859H320.337V103.777H332.76Z" fill="#003CA6"/>
<path d="M361.309 113.995V117.652H344.204V93.7292H348.066V113.995H361.309Z" fill="#003CA6"/>
<path d="M380.857 93.2849C388.204 93.2849 393.382 98.5479 393.382 105.691C393.382 112.833 388.204 118.096 380.857 118.096C373.509 118.096 368.331 112.833 368.331 105.691C368.331 98.5479 373.509 93.2849 380.857 93.2849ZM380.857 96.9929C375.97 96.9929 372.381 100.53 372.381 105.691C372.381 110.851 375.97 114.388 380.857 114.388C385.744 114.388 389.332 110.851 389.332 105.691C389.332 100.53 385.744 96.9929 380.857 96.9929Z" fill="#003CA6"/>
<path d="M436.884 93.7292L429.587 117.652H424.803L419.079 98.9751L413.354 117.652H408.57L401.273 93.7292H405.323L411.013 113.192L416.926 93.7292H421.317L427.212 113.192L432.919 93.7292H436.884Z" fill="#003CA6"/>
<path d="M463.86 114.029V117.652H446.413V93.7292H463.638V97.3518H450.275V103.794H463.176V107.416H450.275V114.029H463.86Z" fill="#003CA6"/>
<path d="M475.177 93.7292H485.019C490.521 93.7292 493.494 96.1898 493.494 100.65C493.494 104.717 490.384 107.416 485.515 107.587L493.392 117.652H488.607L480.986 107.587H479.038V117.652H475.177V93.7292ZM484.916 97.3518H479.038V104.084H484.916C488.026 104.084 489.479 102.956 489.479 100.65C489.479 98.377 487.941 97.3518 484.916 97.3518Z" fill="#003CA6"/>
<path d="M535.037 103.777V107.433H522.614V117.652H518.753V93.7292H535.823V97.3859H522.614V103.777H535.037Z" fill="#003CA6"/>
<path d="M546.481 93.7292H556.324C561.826 93.7292 564.799 96.1898 564.799 100.65C564.799 104.717 561.689 107.416 556.819 107.587L564.696 117.652H559.912L552.291 107.587H550.343V117.652H546.481V93.7292ZM556.221 97.3518H550.343V104.084H556.221C559.331 104.084 560.783 102.956 560.783 100.65C560.783 98.377 559.246 97.3518 556.221 97.3518Z" fill="#003CA6"/>
<path d="M579.24 93.7292V117.652H575.378V93.7292H579.24Z" fill="#003CA6"/>
<path d="M591.192 93.7292H600.693C608.177 93.7292 613.115 98.4796 613.115 105.691C613.115 112.901 608.177 117.652 600.693 117.652H591.192V93.7292ZM600.693 97.3859H595.054V113.995H600.693C606.314 113.995 609.065 110.509 609.065 105.691C609.065 100.821 606.314 97.3859 600.693 97.3859Z" fill="#003CA6"/>
<path d="M634.66 93.7292L644.109 117.652H639.957L637.599 111.552H626.765L624.407 117.652H620.392L629.841 93.7292H634.66ZM632.182 97.5739L628.184 107.895H636.181L632.182 97.5739Z" fill="#003CA6"/>
<path d="M670.58 93.7292L661.353 107.946V117.652H657.491V107.878L648.195 93.7292H652.809L659.439 104.443L666.086 93.7292H670.58Z" fill="#003CA6"/>
<path d="M332.76 168.429V172.085H320.337V182.304H316.476V158.381H333.546V162.038H320.337V168.429H332.76Z" fill="#003CA6"/>
<path d="M361.309 178.647V182.304H344.204V158.381H348.066V178.647H361.309Z" fill="#003CA6"/>
<path d="M380.857 157.937C388.204 157.937 393.382 163.2 393.382 170.342C393.382 177.485 388.204 182.748 380.857 182.748C373.509 182.748 368.331 177.485 368.331 170.342C368.331 163.2 373.509 157.937 380.857 157.937ZM380.857 161.645C375.97 161.645 372.381 165.182 372.381 170.342C372.381 175.503 375.97 179.04 380.857 179.04C385.744 179.04 389.332 175.503 389.332 170.342C389.332 165.182 385.744 161.645 380.857 161.645Z" fill="#003CA6"/>
<path d="M436.884 158.381L429.587 182.304H424.803L419.079 163.627L413.354 182.304H408.57L401.273 158.381H405.323L411.013 177.844L416.926 158.381H421.317L427.212 177.844L432.919 158.381H436.884Z" fill="#003CA6"/>
<path d="M463.86 178.681V182.304H446.413V158.381H463.638V162.004H450.275V168.446H463.176V172.068H450.275V178.681H463.86Z" fill="#003CA6"/>
<path d="M475.177 158.381H485.019C490.521 158.381 493.494 160.842 493.494 165.302C493.494 169.368 490.384 172.068 485.515 172.239L493.392 182.304H488.607L480.986 172.239H479.038V182.304H475.177V158.381ZM484.916 162.004H479.038V168.736H484.916C488.026 168.736 489.479 167.608 489.479 165.302C489.479 163.029 487.941 162.004 484.916 162.004Z" fill="#003CA6"/>
<path d="M535.037 168.429V172.085H522.614V182.304H518.753V158.381H535.823V162.038H522.614V168.429H535.037Z" fill="#003CA6"/>
<path d="M546.481 158.381H556.324C561.826 158.381 564.799 160.842 564.799 165.302C564.799 169.368 561.689 172.068 556.819 172.239L564.696 182.304H559.912L552.291 172.239H550.343V182.304H546.481V158.381ZM556.221 162.004H550.343V168.736H556.221C559.331 168.736 560.783 167.608 560.783 165.302C560.783 163.029 559.246 162.004 556.221 162.004Z" fill="#003CA6"/>
<path d="M579.24 158.381V182.304H575.378V158.381H579.24Z" fill="#003CA6"/>
<path d="M591.192 158.381H600.693C608.177 158.381 613.115 163.131 613.115 170.342C613.115 177.553 608.177 182.304 600.693 182.304H591.192V158.381ZM600.693 162.038H595.054V178.647H600.693C606.314 178.647 609.065 175.161 609.065 170.342C609.065 165.472 606.314 162.038 600.693 162.038Z" fill="#003CA6"/>
<path d="M634.66 158.381L644.109 182.304H639.957L637.599 176.203H626.765L624.407 182.304H620.392L629.841 158.381H634.66ZM632.182 162.226L628.184 172.547H636.181L632.182 162.226Z" fill="#003CA6"/>
<path d="M670.58 158.381L661.353 172.598V182.304H657.491V172.53L648.195 158.381H652.809L659.439 169.095L666.086 158.381H670.58Z" fill="#003CA6"/>
<path d="M332.76 233.08V236.737H320.337V246.956H316.476V223.033H333.546V226.69H320.337V233.08H332.76Z" fill="#003CA6"/>
<path d="M361.309 243.299V246.956H344.204V223.033H348.066V243.299H361.309Z" fill="#003CA6"/>
<path d="M380.857 222.589C388.204 222.589 393.382 227.852 393.382 234.994C393.382 242.137 388.204 247.4 380.857 247.4C373.509 247.4 368.331 242.137 368.331 234.994C368.331 227.852 373.509 222.589 380.857 222.589ZM380.857 226.297C375.97 226.297 372.381 229.834 372.381 234.994C372.381 240.155 375.97 243.692 380.857 243.692C385.744 243.692 389.332 240.155 389.332 234.994C389.332 229.834 385.744 226.297 380.857 226.297Z" fill="#003CA6"/>
<path d="M436.884 223.033L429.587 246.956H424.803L419.079 228.279L413.354 246.956H408.57L401.273 223.033H405.323L411.013 242.496L416.926 223.033H421.317L427.212 242.496L432.919 223.033H436.884Z" fill="#003CA6"/>
<path d="M463.86 243.333V246.956H446.413V223.033H463.638V226.656H450.275V233.098H463.176V236.72H450.275V243.333H463.86Z" fill="#003CA6"/>
<path d="M475.177 223.033H485.019C490.521 223.033 493.494 225.494 493.494 229.953C493.494 234.02 490.384 236.72 485.515 236.891L493.392 246.956H488.607L480.986 236.891H479.038V246.956H475.177V223.033ZM484.916 226.656H479.038V233.388H484.916C488.026 233.388 489.479 232.26 489.479 229.953C489.479 227.681 487.941 226.656 484.916 226.656Z" fill="#003CA6"/>
<path d="M535.037 233.08V236.737H522.614V246.956H518.753V223.033H535.823V226.69H522.614V233.08H535.037Z" fill="#003CA6"/>
<path d="M546.481 223.033H556.324C561.826 223.033 564.799 225.494 564.799 229.953C564.799 234.02 561.689 236.72 556.819 236.891L564.696 246.956H559.912L552.291 236.891H550.343V246.956H546.481V223.033ZM556.221 226.656H550.343V233.388H556.221C559.331 233.388 560.783 232.26 560.783 229.953C560.783 227.681 559.246 226.656 556.221 226.656Z" fill="#003CA6"/>
<path d="M579.24 223.033V246.956H575.378V223.033H579.24Z" fill="#003CA6"/>
<path d="M591.192 223.033H600.693C608.177 223.033 613.115 227.783 613.115 234.994C613.115 242.205 608.177 246.956 600.693 246.956H591.192V223.033ZM600.693 226.69H595.054V243.299H600.693C606.314 243.299 609.065 239.813 609.065 234.994C609.065 230.124 606.314 226.69 600.693 226.69Z" fill="#003CA6"/>
<path d="M634.66 223.033L644.109 246.956H639.957L637.599 240.855H626.765L624.407 246.956H620.392L629.841 223.033H634.66ZM632.182 226.878L628.184 237.199H636.181L632.182 226.878Z" fill="#003CA6"/>
<path d="M670.58 223.033L661.353 237.25V246.956H657.491V237.181L648.195 223.033H652.809L659.439 233.747L666.086 223.033H670.58Z" fill="#003CA6"/>
<path d="M332.76 297.732V301.389H320.337V311.607H316.476V287.685H333.546V291.342H320.337V297.732H332.76Z" fill="#003CA6"/>
<path d="M361.309 307.951V311.607H344.204V287.685H348.066V307.951H361.309Z" fill="#003CA6"/>
<path d="M380.857 287.241C388.204 287.241 393.382 292.504 393.382 299.646C393.382 306.789 388.204 312.052 380.857 312.052C373.509 312.052 368.331 306.789 368.331 299.646C368.331 292.504 373.509 287.241 380.857 287.241ZM380.857 290.949C375.97 290.949 372.381 294.486 372.381 299.646C372.381 304.807 375.97 308.344 380.857 308.344C385.744 308.344 389.332 304.807 389.332 299.646C389.332 294.486 385.744 290.949 380.857 290.949Z" fill="#003CA6"/>
<path d="M436.884 287.685L429.587 311.607H424.803L419.079 292.931L413.354 311.607H408.57L401.273 287.685H405.323L411.013 307.148L416.926 287.685H421.317L427.212 307.148L432.919 287.685H436.884Z" fill="#003CA6"/>
<path d="M463.86 307.985V311.607H446.413V287.685H463.638V291.307H450.275V297.749H463.176V301.372H450.275V307.985H463.86Z" fill="#003CA6"/>
<path d="M475.177 287.685H485.019C490.521 287.685 493.494 290.145 493.494 294.605C493.494 298.672 490.384 301.372 485.515 301.543L493.392 311.607H488.607L480.986 301.543H479.038V311.607H475.177V287.685ZM484.916 291.307H479.038V298.04H484.916C488.026 298.04 489.479 296.912 489.479 294.605C489.479 292.333 487.941 291.307 484.916 291.307Z" fill="#003CA6"/>
<path d="M535.037 297.732V301.389H522.614V311.607H518.753V287.685H535.823V291.342H522.614V297.732H535.037Z" fill="#003CA6"/>
<path d="M546.481 287.685H556.324C561.826 287.685 564.799 290.145 564.799 294.605C564.799 298.672 561.689 301.372 556.819 301.543L564.696 311.607H559.912L552.291 301.543H550.343V311.607H546.481V287.685ZM556.221 291.307H550.343V298.04H556.221C559.331 298.04 560.783 296.912 560.783 294.605C560.783 292.333 559.246 291.307 556.221 291.307Z" fill="#003CA6"/>
<path d="M579.24 287.685V311.607H575.378V287.685H579.24Z" fill="#003CA6"/>
<path d="M591.192 287.685H600.693C608.177 287.685 613.115 292.435 613.115 299.646C613.115 306.857 608.177 311.607 600.693 311.607H591.192V287.685ZM600.693 291.342H595.054V307.951H600.693C606.314 307.951 609.065 304.465 609.065 299.646C609.065 294.776 606.314 291.342 600.693 291.342Z" fill="#003CA6"/>
<path d="M634.66 287.685L644.109 311.607H639.957L637.599 305.507H626.765L624.407 311.607H620.392L629.841 287.685H634.66ZM632.182 291.53L628.184 301.85H636.181L632.182 291.53Z" fill="#003CA6"/>
<path d="M670.58 287.685L661.353 301.902V311.607H657.491V301.833L648.195 287.685H652.809L659.439 298.399L666.086 287.685H670.58Z" fill="#003CA6"/>
<path d="M332.76 362.384V366.041H320.337V376.259H316.476V352.337H333.546V355.993H320.337V362.384H332.76Z" fill="#003CA6"/>
<path d="M361.309 372.603V376.259H344.204V352.337H348.066V372.603H361.309Z" fill="#003CA6"/>
<path d="M380.857 351.892C388.204 351.892 393.382 357.155 393.382 364.298C393.382 371.441 388.204 376.704 380.857 376.704C373.509 376.704 368.331 371.441 368.331 364.298C368.331 357.155 373.509 351.892 380.857 351.892ZM380.857 355.6C375.97 355.6 372.381 359.138 372.381 364.298C372.381 369.458 375.97 372.996 380.857 372.996C385.744 372.996 389.332 369.458 389.332 364.298C389.332 359.138 385.744 355.6 380.857 355.6Z" fill="#003CA6"/>
<path d="M436.884 352.337L429.587 376.259H424.803L419.079 357.583L413.354 376.259H408.57L401.273 352.337H405.323L411.013 371.799L416.926 352.337H421.317L427.212 371.799L432.919 352.337H436.884Z" fill="#003CA6"/>
<path d="M463.86 372.637V376.259H446.413V352.337H463.638V355.959H450.275V362.401H463.176V366.024H450.275V372.637H463.86Z" fill="#003CA6"/>
<path d="M475.177 352.337H485.019C490.521 352.337 493.494 354.797 493.494 359.257C493.494 363.324 490.384 366.024 485.515 366.195L493.392 376.259H488.607L480.986 366.195H479.038V376.259H475.177V352.337ZM484.916 355.959H479.038V362.692H484.916C488.026 362.692 489.479 361.564 489.479 359.257C489.479 356.984 487.941 355.959 484.916 355.959Z" fill="#003CA6"/>
<path d="M535.037 362.384V366.041H522.614V376.259H518.753V352.337H535.823V355.993H522.614V362.384H535.037Z" fill="#003CA6"/>
<path d="M546.481 352.337H556.324C561.826 352.337 564.799 354.797 564.799 359.257C564.799 363.324 561.689 366.024 556.819 366.195L564.696 376.259H559.912L552.291 366.195H550.343V376.259H546.481V352.337ZM556.221 355.959H550.343V362.692H556.221C559.331 362.692 560.783 361.564 560.783 359.257C560.783 356.984 559.246 355.959 556.221 355.959Z" fill="#003CA6"/>
<path d="M579.24 352.337V376.259H575.378V352.337H579.24Z" fill="#003CA6"/>
<path d="M591.192 352.337H600.693C608.177 352.337 613.115 357.087 613.115 364.298C613.115 371.509 608.177 376.259 600.693 376.259H591.192V352.337ZM600.693 355.993H595.054V372.603H600.693C606.314 372.603 609.065 369.117 609.065 364.298C609.065 359.428 606.314 355.993 600.693 355.993Z" fill="#003CA6"/>
<path d="M634.66 352.337L644.109 376.259H639.957L637.599 370.159H626.765L624.407 376.259H620.392L629.841 352.337H634.66ZM632.182 356.181L628.184 366.502H636.181L632.182 356.181Z" fill="#003CA6"/>
<path d="M670.58 352.337L661.353 366.554V376.259H657.491V366.485L648.195 352.337H652.809L659.439 363.051L666.086 352.337H670.58Z" fill="#003CA6"/>
<path d="M332.76 427.036V430.693H320.337V440.911H316.476V416.989H333.546V420.645H320.337V427.036H332.76Z" fill="#003CA6"/>
<path d="M361.309 437.254V440.911H344.204V416.989H348.066V437.254H361.309Z" fill="#003CA6"/>
<path d="M380.857 416.544C388.204 416.544 393.382 421.807 393.382 428.95C393.382 436.092 388.204 441.355 380.857 441.355C373.509 441.355 368.331 436.092 368.331 428.95C368.331 421.807 373.509 416.544 380.857 416.544ZM380.857 420.252C375.97 420.252 372.381 423.789 372.381 428.95C372.381 434.11 375.97 437.647 380.857 437.647C385.744 437.647 389.332 434.11 389.332 428.95C389.332 423.789 385.744 420.252 380.857 420.252Z" fill="#003CA6"/>
<path d="M436.884 416.989L429.587 440.911H424.803L419.079 422.234L413.354 440.911H408.57L401.273 416.989H405.323L411.013 436.451L416.926 416.989H421.317L427.212 436.451L432.919 416.989H436.884Z" fill="#003CA6"/>
<path d="M463.86 437.289V440.911H446.413V416.989H463.638V420.611H450.275V427.053H463.176V430.676H450.275V437.289H463.86Z" fill="#003CA6"/>
<path d="M475.177 416.989H485.019C490.521 416.989 493.494 419.449 493.494 423.909C493.494 427.976 490.384 430.676 485.515 430.847L493.392 440.911H488.607L480.986 430.847H479.038V440.911H475.177V416.989ZM484.916 420.611H479.038V427.344H484.916C488.026 427.344 489.479 426.216 489.479 423.909C489.479 421.636 487.941 420.611 484.916 420.611Z" fill="#003CA6"/>
<path d="M535.037 427.036V430.693H522.614V440.911H518.753V416.989H535.823V420.645H522.614V427.036H535.037Z" fill="#003CA6"/>
<path d="M546.481 416.989H556.324C561.826 416.989 564.799 419.449 564.799 423.909C564.799 427.976 561.689 430.676 556.819 430.847L564.696 440.911H559.912L552.291 430.847H550.343V440.911H546.481V416.989ZM556.221 420.611H550.343V427.344H556.221C559.331 427.344 560.783 426.216 560.783 423.909C560.783 421.636 559.246 420.611 556.221 420.611Z" fill="#003CA6"/>
<path d="M579.24 416.989V440.911H575.378V416.989H579.24Z" fill="#003CA6"/>
<path d="M591.192 416.989H600.693C608.177 416.989 613.115 421.739 613.115 428.95C613.115 436.161 608.177 440.911 600.693 440.911H591.192V416.989ZM600.693 420.645H595.054V437.254H600.693C606.314 437.254 609.065 433.769 609.065 428.95C609.065 424.08 606.314 420.645 600.693 420.645Z" fill="#003CA6"/>
<path d="M634.66 416.989L644.109 440.911H639.957L637.599 434.811H626.765L624.407 440.911H620.392L629.841 416.989H634.66ZM632.182 420.833L628.184 431.154H636.181L632.182 420.833Z" fill="#003CA6"/>
<path d="M670.58 416.989L661.353 431.205V440.911H657.491V431.137L648.195 416.989H652.809L659.439 427.702L666.086 416.989H670.58Z" fill="#003CA6"/>
<path d="M332.76 491.688V495.345H320.337V505.563H316.476V481.64H333.546V485.297H320.337V491.688H332.76Z" fill="#003CA6"/>
<path d="M361.309 501.906V505.563H344.204V481.64H348.066V501.906H361.309Z" fill="#003CA6"/>
<path d="M380.857 481.196C388.204 481.196 393.382 486.459 393.382 493.602C393.382 500.744 388.204 506.007 380.857 506.007C373.509 506.007 368.331 500.744 368.331 493.602C368.331 486.459 373.509 481.196 380.857 481.196ZM380.857 484.904C375.97 484.904 372.381 488.441 372.381 493.602C372.381 498.762 375.97 502.299 380.857 502.299C385.744 502.299 389.332 498.762 389.332 493.602C389.332 488.441 385.744 484.904 380.857 484.904Z" fill="#003CA6"/>
<path d="M436.884 481.64L429.587 505.563H424.803L419.079 486.886L413.354 505.563H408.57L401.273 481.64H405.323L411.013 501.103L416.926 481.64H421.317L427.212 501.103L432.919 481.64H436.884Z" fill="#003CA6"/>
<path d="M463.86 501.94V505.563H446.413V481.64H463.638V485.263H450.275V491.705H463.176V495.328H450.275V501.94H463.86Z" fill="#003CA6"/>
<path d="M475.177 481.64H485.019C490.521 481.64 493.494 484.101 493.494 488.561C493.494 492.628 490.384 495.328 485.515 495.498L493.392 505.563H488.607L480.986 495.498H479.038V505.563H475.177V481.64ZM484.916 485.263H479.038V491.995H484.916C488.026 491.995 489.479 490.868 489.479 488.561C489.479 486.288 487.941 485.263 484.916 485.263Z" fill="#003CA6"/>
<path d="M535.037 491.688V495.345H522.614V505.563H518.753V481.64H535.823V485.297H522.614V491.688H535.037Z" fill="#003CA6"/>
<path d="M546.481 481.64H556.324C561.826 481.64 564.799 484.101 564.799 488.561C564.799 492.628 561.689 495.328 556.819 495.498L564.696 505.563H559.912L552.291 495.498H550.343V505.563H546.481V481.64ZM556.221 485.263H550.343V491.995H556.221C559.331 491.995 560.783 490.868 560.783 488.561C560.783 486.288 559.246 485.263 556.221 485.263Z" fill="#003CA6"/>
<path d="M579.24 481.64V505.563H575.378V481.64H579.24Z" fill="#003CA6"/>
<path d="M591.192 481.64H600.693C608.177 481.64 613.115 486.391 613.115 493.602C613.115 500.813 608.177 505.563 600.693 505.563H591.192V481.64ZM600.693 485.297H595.054V501.906H600.693C606.314 501.906 609.065 498.42 609.065 493.602C609.065 488.732 606.314 485.297 600.693 485.297Z" fill="#003CA6"/>
<path d="M634.66 481.64L644.109 505.563H639.957L637.599 499.463H626.765L624.407 505.563H620.392L629.841 481.64H634.66ZM632.182 485.485L628.184 495.806H636.181L632.182 485.485Z" fill="#003CA6"/>
<path d="M670.58 481.64L661.353 495.857V505.563H657.491V495.789L648.195 481.64H652.809L659.439 492.354L666.086 481.64H670.58Z" fill="#003CA6"/>
<path d="M332.76 556.34V559.996H320.337V570.215H316.476V546.292H333.546V549.949H320.337V556.34H332.76Z" fill="#003CA6"/>
<path d="M361.309 566.558V570.215H344.204V546.292H348.066V566.558H361.309Z" fill="#003CA6"/>
<path d="M380.857 545.848C388.204 545.848 393.382 551.111 393.382 558.254C393.382 565.396 388.204 570.659 380.857 570.659C373.509 570.659 368.331 565.396 368.331 558.254C368.331 551.111 373.509 545.848 380.857 545.848ZM380.857 549.556C375.97 549.556 372.381 553.093 372.381 558.254C372.381 563.414 375.97 566.951 380.857 566.951C385.744 566.951 389.332 563.414 389.332 558.254C389.332 553.093 385.744 549.556 380.857 549.556Z" fill="#003CA6"/>
<path d="M436.884 546.292L429.587 570.215H424.803L419.079 551.538L413.354 570.215H408.57L401.273 546.292H405.323L411.013 565.755L416.926 546.292H421.317L427.212 565.755L432.919 546.292H436.884Z" fill="#003CA6"/>
<path d="M463.86 566.592V570.215H446.413V546.292H463.638V549.915H450.275V556.357H463.176V559.979H450.275V566.592H463.86Z" fill="#003CA6"/>
<path d="M475.177 546.292H485.019C490.521 546.292 493.494 548.753 493.494 553.213C493.494 557.28 490.384 559.979 485.515 560.15L493.392 570.215H488.607L480.986 560.15H479.038V570.215H475.177V546.292ZM484.916 549.915H479.038V556.647H484.916C488.026 556.647 489.479 555.52 489.479 553.213C489.479 550.94 487.941 549.915 484.916 549.915Z" fill="#003CA6"/>
<path d="M535.037 556.34V559.996H522.614V570.215H518.753V546.292H535.823V549.949H522.614V556.34H535.037Z" fill="#003CA6"/>
<path d="M546.481 546.292H556.324C561.826 546.292 564.799 548.753 564.799 553.213C564.799 557.28 561.689 559.979 556.819 560.15L564.696 570.215H559.912L552.291 560.15H550.343V570.215H546.481V546.292ZM556.221 549.915H550.343V556.647H556.221C559.331 556.647 560.783 555.52 560.783 553.213C560.783 550.94 559.246 549.915 556.221 549.915Z" fill="#003CA6"/>
<path d="M579.24 546.292V570.215H575.378V546.292H579.24Z" fill="#003CA6"/>
<path d="M591.192 546.292H600.693C608.177 546.292 613.115 551.043 613.115 558.254C613.115 565.464 608.177 570.215 600.693 570.215H591.192V546.292ZM600.693 549.949H595.054V566.558H600.693C606.314 566.558 609.065 563.072 609.065 558.254C609.065 553.384 606.314 549.949 600.693 549.949Z" fill="#003CA6"/>
<path d="M634.66 546.292L644.109 570.215H639.957L637.599 564.115H626.765L624.407 570.215H620.392L629.841 546.292H634.66ZM632.182 550.137L628.184 560.458H636.181L632.182 550.137Z" fill="#003CA6"/>
<path d="M670.58 546.292L661.353 560.509V570.215H657.491V560.441L648.195 546.292H652.809L659.439 557.006L666.086 546.292H670.58Z" fill="#003CA6"/>
<path d="M332.76 620.992V624.648H320.337V634.867H316.476V610.944H333.546V614.601H320.337V620.992H332.76Z" fill="#003CA6"/>
<path d="M361.309 631.21V634.867H344.204V610.944H348.066V631.21H361.309Z" fill="#003CA6"/>
<path d="M380.857 610.5C388.204 610.5 393.382 615.763 393.382 622.905C393.382 630.048 388.204 635.311 380.857 635.311C373.509 635.311 368.331 630.048 368.331 622.905C368.331 615.763 373.509 610.5 380.857 610.5ZM380.857 614.208C375.97 614.208 372.381 617.745 372.381 622.905C372.381 628.066 375.97 631.603 380.857 631.603C385.744 631.603 389.332 628.066 389.332 622.905C389.332 617.745 385.744 614.208 380.857 614.208Z" fill="#003CA6"/>
<path d="M436.884 610.944L429.587 634.867H424.803L419.079 616.19L413.354 634.867H408.57L401.273 610.944H405.323L411.013 630.407L416.926 610.944H421.317L427.212 630.407L432.919 610.944H436.884Z" fill="#003CA6"/>
<path d="M463.86 631.244V634.867H446.413V610.944H463.638V614.567H450.275V621.009H463.176V624.631H450.275V631.244H463.86Z" fill="#003CA6"/>
<path d="M475.177 610.944H485.019C490.521 610.944 493.494 613.405 493.494 617.865C493.494 621.931 490.384 624.631 485.515 624.802L493.392 634.867H488.607L480.986 624.802H479.038V634.867H475.177V610.944ZM484.916 614.567H479.038V621.299H484.916C488.026 621.299 489.479 620.171 489.479 617.865C489.479 615.592 487.941 614.567 484.916 614.567Z" fill="#003CA6"/>
<path d="M535.037 620.992V624.648H522.614V634.867H518.753V610.944H535.823V614.601H522.614V620.992H535.037Z" fill="#003CA6"/>
<path d="M546.481 610.944H556.324C561.826 610.944 564.799 613.405 564.799 617.865C564.799 621.931 561.689 624.631 556.819 624.802L564.696 634.867H559.912L552.291 624.802H550.343V634.867H546.481V610.944ZM556.221 614.567H550.343V621.299H556.221C559.331 621.299 560.783 620.171 560.783 617.865C560.783 615.592 559.246 614.567 556.221 614.567Z" fill="#003CA6"/>
<path d="M579.24 610.944V634.867H575.378V610.944H579.24Z" fill="#003CA6"/>
<path d="M591.192 610.944H600.693C608.177 610.944 613.115 615.694 613.115 622.905C613.115 630.116 608.177 634.867 600.693 634.867H591.192V610.944ZM600.693 614.601H595.054V631.21H600.693C606.314 631.21 609.065 627.724 609.065 622.905C609.065 618.035 606.314 614.601 600.693 614.601Z" fill="#003CA6"/>
<path d="M634.66 610.944L644.109 634.867H639.957L637.599 628.766H626.765L624.407 634.867H620.392L629.841 610.944H634.66ZM632.182 614.789L628.184 625.11H636.181L632.182 614.789Z" fill="#003CA6"/>
<path d="M670.58 610.944L661.353 625.161V634.867H657.491V625.093L648.195 610.944H652.809L659.439 621.658L666.086 610.944H670.58Z" fill="#003CA6"/>
<path d="M332.76 685.643V689.3H320.337V699.519H316.476V675.596H333.546V679.253H320.337V685.643H332.76Z" fill="#003CA6"/>
<path d="M361.309 695.862V699.519H344.204V675.596H348.066V695.862H361.309Z" fill="#003CA6"/>
<path d="M380.857 675.152C388.204 675.152 393.382 680.415 393.382 687.557C393.382 694.7 388.204 699.963 380.857 699.963C373.509 699.963 368.331 694.7 368.331 687.557C368.331 680.415 373.509 675.152 380.857 675.152ZM380.857 678.86C375.97 678.86 372.381 682.397 372.381 687.557C372.381 692.718 375.97 696.255 380.857 696.255C385.744 696.255 389.332 692.718 389.332 687.557C389.332 682.397 385.744 678.86 380.857 678.86Z" fill="#003CA6"/>
<path d="M436.884 675.596L429.587 699.519H424.803L419.079 680.842L413.354 699.519H408.57L401.273 675.596H405.323L411.013 695.059L416.926 675.596H421.317L427.212 695.059L432.919 675.596H436.884Z" fill="#003CA6"/>
<path d="M463.86 695.896V699.519H446.413V675.596H463.638V679.219H450.275V685.661H463.176V689.283H450.275V695.896H463.86Z" fill="#003CA6"/>
<path d="M475.177 675.596H485.019C490.521 675.596 493.494 678.057 493.494 682.516C493.494 686.583 490.384 689.283 485.515 689.454L493.392 699.519H488.607L480.986 689.454H479.038V699.519H475.177V675.596ZM484.916 679.219H479.038V685.951H484.916C488.026 685.951 489.479 684.823 489.479 682.516C489.479 680.244 487.941 679.219 484.916 679.219Z" fill="#003CA6"/>
<path d="M535.037 685.643V689.3H522.614V699.519H518.753V675.596H535.823V679.253H522.614V685.643H535.037Z" fill="#003CA6"/>
<path d="M546.481 675.596H556.324C561.826 675.596 564.799 678.057 564.799 682.516C564.799 686.583 561.689 689.283 556.819 689.454L564.696 699.519H559.912L552.291 689.454H550.343V699.519H546.481V675.596ZM556.221 679.219H550.343V685.951H556.221C559.331 685.951 560.783 684.823 560.783 682.516C560.783 680.244 559.246 679.219 556.221 679.219Z" fill="#003CA6"/>
<path d="M579.24 675.596V699.519H575.378V675.596H579.24Z" fill="#003CA6"/>
<path d="M591.192 675.596H600.693C608.177 675.596 613.115 680.346 613.115 687.557C613.115 694.768 608.177 699.519 600.693 699.519H591.192V675.596ZM600.693 679.253H595.054V695.862H600.693C606.314 695.862 609.065 692.376 609.065 687.557C609.065 682.687 606.314 679.253 600.693 679.253Z" fill="#003CA6"/>
<path d="M634.66 675.596L644.109 699.519H639.957L637.599 693.418H626.765L624.407 699.519H620.392L629.841 675.596H634.66ZM632.182 679.441L628.184 689.762H636.181L632.182 679.441Z" fill="#003CA6"/>
<path d="M670.58 675.596L661.353 689.813V699.519H657.491V689.744L648.195 675.596H652.809L659.439 686.31L666.086 675.596H670.58Z" fill="#003CA6"/>
<path d="M713.76 39.1248V42.7816H701.337V52.9999H697.476V29.0773H714.546V32.7341H701.337V39.1248H713.76Z" fill="#003CA6"/>
<path d="M742.309 49.3432V52.9999H725.204V29.0773H729.066V49.3432H742.309Z" fill="#003CA6"/>
<path d="M761.857 28.6331C769.204 28.6331 774.382 33.896 774.382 41.0386C774.382 48.1813 769.204 53.4442 761.857 53.4442C754.509 53.4442 749.331 48.1813 749.331 41.0386C749.331 33.896 754.509 28.6331 761.857 28.6331ZM761.857 32.3411C756.97 32.3411 753.381 35.8782 753.381 41.0386C753.381 46.1991 756.97 49.7362 761.857 49.7362C766.744 49.7362 770.332 46.1991 770.332 41.0386C770.332 35.8782 766.744 32.3411 761.857 32.3411Z" fill="#003CA6"/>
<path d="M817.884 29.0773L810.587 52.9999H805.803L800.079 34.3232L794.354 52.9999H789.57L782.273 29.0773H786.323L792.013 48.5401L797.926 29.0773H802.317L808.212 48.5401L813.919 29.0773H817.884Z" fill="#003CA6"/>
<path d="M844.86 49.3774V52.9999H827.413V29.0773H844.638V32.6999H831.275V39.1419H844.176V42.7645H831.275V49.3774H844.86Z" fill="#003CA6"/>
<path d="M856.177 29.0773H866.019C871.521 29.0773 874.494 31.5379 874.494 35.9978C874.494 40.0646 871.384 42.7645 866.515 42.9354L874.392 52.9999H869.607L861.986 42.9354H860.038V52.9999H856.177V29.0773ZM865.916 32.6999H860.038V39.4324H865.916C869.026 39.4324 870.479 38.3046 870.479 35.9978C870.479 33.7252 868.941 32.6999 865.916 32.6999Z" fill="#003CA6"/>
<path d="M916.037 39.1248V42.7816H903.614V52.9999H899.753V29.0773H916.823V32.7341H903.614V39.1248H916.037Z" fill="#003CA6"/>
<path d="M927.481 29.0773H937.324C942.826 29.0773 945.799 31.5379 945.799 35.9978C945.799 40.0646 942.689 42.7645 937.819 42.9354L945.696 52.9999H940.912L933.291 42.9354H931.343V52.9999H927.481V29.0773ZM937.221 32.6999H931.343V39.4324H937.221C940.331 39.4324 941.783 38.3046 941.783 35.9978C941.783 33.7252 940.246 32.6999 937.221 32.6999Z" fill="#003CA6"/>
<path d="M960.24 29.0773V52.9999H956.378V29.0773H960.24Z" fill="#003CA6"/>
<path d="M972.192 29.0773H981.693C989.177 29.0773 994.115 33.8277 994.115 41.0386C994.115 48.2496 989.177 52.9999 981.693 52.9999H972.192V29.0773ZM981.693 32.7341H976.054V49.3432H981.693C987.314 49.3432 990.065 45.8573 990.065 41.0386C990.065 36.1687 987.314 32.7341 981.693 32.7341Z" fill="#003CA6"/>
<path d="M1015.66 29.0773L1025.11 52.9999H1020.96L1018.6 46.8997H1007.77L1005.41 52.9999H1001.39L1010.84 29.0773H1015.66ZM1013.18 32.922L1009.18 43.2429H1017.18L1013.18 32.922Z" fill="#003CA6"/>
<path d="M1051.58 29.0773L1042.35 43.2942V52.9999H1038.49V43.2259L1029.2 29.0773H1033.81L1040.44 39.7912L1047.09 29.0773H1051.58Z" fill="#003CA6"/>
<path d="M713.76 103.777V107.433H701.337V117.652H697.476V93.7292H714.546V97.3859H701.337V103.777H713.76Z" fill="#003CA6"/>
<path d="M742.309 113.995V117.652H725.204V93.7292H729.066V113.995H742.309Z" fill="#003CA6"/>
<path d="M761.857 93.2849C769.204 93.2849 774.382 98.5479 774.382 105.691C774.382 112.833 769.204 118.096 761.857 118.096C754.509 118.096 749.331 112.833 749.331 105.691C749.331 98.5479 754.509 93.2849 761.857 93.2849ZM761.857 96.9929C756.97 96.9929 753.381 100.53 753.381 105.691C753.381 110.851 756.97 114.388 761.857 114.388C766.744 114.388 770.332 110.851 770.332 105.691C770.332 100.53 766.744 96.9929 761.857 96.9929Z" fill="#003CA6"/>
<path d="M817.884 93.7292L810.587 117.652H805.803L800.079 98.9751L794.354 117.652H789.57L782.273 93.7292H786.323L792.013 113.192L797.926 93.7292H802.317L808.212 113.192L813.919 93.7292H817.884Z" fill="#003CA6"/>
<path d="M844.86 114.029V117.652H827.413V93.7292H844.638V97.3518H831.275V103.794H844.176V107.416H831.275V114.029H844.86Z" fill="#003CA6"/>
<path d="M856.177 93.7292H866.019C871.521 93.7292 874.494 96.1898 874.494 100.65C874.494 104.717 871.384 107.416 866.515 107.587L874.392 117.652H869.607L861.986 107.587H860.038V117.652H856.177V93.7292ZM865.916 97.3518H860.038V104.084H865.916C869.026 104.084 870.479 102.956 870.479 100.65C870.479 98.377 868.941 97.3518 865.916 97.3518Z" fill="#003CA6"/>
<path d="M916.037 103.777V107.433H903.614V117.652H899.753V93.7292H916.823V97.3859H903.614V103.777H916.037Z" fill="#003CA6"/>
<path d="M927.481 93.7292H937.324C942.826 93.7292 945.799 96.1898 945.799 100.65C945.799 104.717 942.689 107.416 937.819 107.587L945.696 117.652H940.912L933.291 107.587H931.343V117.652H927.481V93.7292ZM937.221 97.3518H931.343V104.084H937.221C940.331 104.084 941.783 102.956 941.783 100.65C941.783 98.377 940.246 97.3518 937.221 97.3518Z" fill="#003CA6"/>
<path d="M960.24 93.7292V117.652H956.378V93.7292H960.24Z" fill="#003CA6"/>
<path d="M972.192 93.7292H981.693C989.177 93.7292 994.115 98.4796 994.115 105.691C994.115 112.901 989.177 117.652 981.693 117.652H972.192V93.7292ZM981.693 97.3859H976.054V113.995H981.693C987.314 113.995 990.065 110.509 990.065 105.691C990.065 100.821 987.314 97.3859 981.693 97.3859Z" fill="#003CA6"/>
<path d="M1015.66 93.7292L1025.11 117.652H1020.96L1018.6 111.552H1007.77L1005.41 117.652H1001.39L1010.84 93.7292H1015.66ZM1013.18 97.5739L1009.18 107.895H1017.18L1013.18 97.5739Z" fill="#003CA6"/>
<path d="M1051.58 93.7292L1042.35 107.946V117.652H1038.49V107.878L1029.2 93.7292H1033.81L1040.44 104.443L1047.09 93.7292H1051.58Z" fill="#003CA6"/>
<path d="M713.76 168.429V172.085H701.337V182.304H697.476V158.381H714.546V162.038H701.337V168.429H713.76Z" fill="#003CA6"/>
<path d="M742.309 178.647V182.304H725.204V158.381H729.066V178.647H742.309Z" fill="#003CA6"/>
<path d="M761.857 157.937C769.204 157.937 774.382 163.2 774.382 170.342C774.382 177.485 769.204 182.748 761.857 182.748C754.509 182.748 749.331 177.485 749.331 170.342C749.331 163.2 754.509 157.937 761.857 157.937ZM761.857 161.645C756.97 161.645 753.381 165.182 753.381 170.342C753.381 175.503 756.97 179.04 761.857 179.04C766.744 179.04 770.332 175.503 770.332 170.342C770.332 165.182 766.744 161.645 761.857 161.645Z" fill="#003CA6"/>
<path d="M817.884 158.381L810.587 182.304H805.803L800.079 163.627L794.354 182.304H789.57L782.273 158.381H786.323L792.013 177.844L797.926 158.381H802.317L808.212 177.844L813.919 158.381H817.884Z" fill="#003CA6"/>
<path d="M844.86 178.681V182.304H827.413V158.381H844.638V162.004H831.275V168.446H844.176V172.068H831.275V178.681H844.86Z" fill="#003CA6"/>
<path d="M856.177 158.381H866.019C871.521 158.381 874.494 160.842 874.494 165.302C874.494 169.368 871.384 172.068 866.515 172.239L874.392 182.304H869.607L861.986 172.239H860.038V182.304H856.177V158.381ZM865.916 162.004H860.038V168.736H865.916C869.026 168.736 870.479 167.608 870.479 165.302C870.479 163.029 868.941 162.004 865.916 162.004Z" fill="#003CA6"/>
<path d="M916.037 168.429V172.085H903.614V182.304H899.753V158.381H916.823V162.038H903.614V168.429H916.037Z" fill="#003CA6"/>
<path d="M927.481 158.381H937.324C942.826 158.381 945.799 160.842 945.799 165.302C945.799 169.368 942.689 172.068 937.819 172.239L945.696 182.304H940.912L933.291 172.239H931.343V182.304H927.481V158.381ZM937.221 162.004H931.343V168.736H937.221C940.331 168.736 941.783 167.608 941.783 165.302C941.783 163.029 940.246 162.004 937.221 162.004Z" fill="#003CA6"/>
<path d="M960.24 158.381V182.304H956.378V158.381H960.24Z" fill="#003CA6"/>
<path d="M972.192 158.381H981.693C989.177 158.381 994.115 163.131 994.115 170.342C994.115 177.553 989.177 182.304 981.693 182.304H972.192V158.381ZM981.693 162.038H976.054V178.647H981.693C987.314 178.647 990.065 175.161 990.065 170.342C990.065 165.472 987.314 162.038 981.693 162.038Z" fill="#003CA6"/>
<path d="M1015.66 158.381L1025.11 182.304H1020.96L1018.6 176.203H1007.77L1005.41 182.304H1001.39L1010.84 158.381H1015.66ZM1013.18 162.226L1009.18 172.547H1017.18L1013.18 162.226Z" fill="#003CA6"/>
<path d="M1051.58 158.381L1042.35 172.598V182.304H1038.49V172.53L1029.2 158.381H1033.81L1040.44 169.095L1047.09 158.381H1051.58Z" fill="#003CA6"/>
<path d="M713.76 233.08V236.737H701.337V246.956H697.476V223.033H714.546V226.69H701.337V233.08H713.76Z" fill="#003CA6"/>
<path d="M742.309 243.299V246.956H725.204V223.033H729.066V243.299H742.309Z" fill="#003CA6"/>
<path d="M761.857 222.589C769.204 222.589 774.382 227.852 774.382 234.994C774.382 242.137 769.204 247.4 761.857 247.4C754.509 247.4 749.331 242.137 749.331 234.994C749.331 227.852 754.509 222.589 761.857 222.589ZM761.857 226.297C756.97 226.297 753.381 229.834 753.381 234.994C753.381 240.155 756.97 243.692 761.857 243.692C766.744 243.692 770.332 240.155 770.332 234.994C770.332 229.834 766.744 226.297 761.857 226.297Z" fill="#003CA6"/>
<path d="M817.884 223.033L810.587 246.956H805.803L800.079 228.279L794.354 246.956H789.57L782.273 223.033H786.323L792.013 242.496L797.926 223.033H802.317L808.212 242.496L813.919 223.033H817.884Z" fill="#003CA6"/>
<path d="M844.86 243.333V246.956H827.413V223.033H844.638V226.656H831.275V233.098H844.176V236.72H831.275V243.333H844.86Z" fill="#003CA6"/>
<path d="M856.177 223.033H866.019C871.521 223.033 874.494 225.494 874.494 229.953C874.494 234.02 871.384 236.72 866.515 236.891L874.392 246.956H869.607L861.986 236.891H860.038V246.956H856.177V223.033ZM865.916 226.656H860.038V233.388H865.916C869.026 233.388 870.479 232.26 870.479 229.953C870.479 227.681 868.941 226.656 865.916 226.656Z" fill="#003CA6"/>
<path d="M916.037 233.08V236.737H903.614V246.956H899.753V223.033H916.823V226.69H903.614V233.08H916.037Z" fill="#003CA6"/>
<path d="M927.481 223.033H937.324C942.826 223.033 945.799 225.494 945.799 229.953C945.799 234.02 942.689 236.72 937.819 236.891L945.696 246.956H940.912L933.291 236.891H931.343V246.956H927.481V223.033ZM937.221 226.656H931.343V233.388H937.221C940.331 233.388 941.783 232.26 941.783 229.953C941.783 227.681 940.246 226.656 937.221 226.656Z" fill="#003CA6"/>
<path d="M960.24 223.033V246.956H956.378V223.033H960.24Z" fill="#003CA6"/>
<path d="M972.192 223.033H981.693C989.177 223.033 994.115 227.783 994.115 234.994C994.115 242.205 989.177 246.956 981.693 246.956H972.192V223.033ZM981.693 226.69H976.054V243.299H981.693C987.314 243.299 990.065 239.813 990.065 234.994C990.065 230.124 987.314 226.69 981.693 226.69Z" fill="#003CA6"/>
<path d="M1015.66 223.033L1025.11 246.956H1020.96L1018.6 240.855H1007.77L1005.41 246.956H1001.39L1010.84 223.033H1015.66ZM1013.18 226.878L1009.18 237.199H1017.18L1013.18 226.878Z" fill="#003CA6"/>
<path d="M1051.58 223.033L1042.35 237.25V246.956H1038.49V237.181L1029.2 223.033H1033.81L1040.44 233.747L1047.09 223.033H1051.58Z" fill="#003CA6"/>
<path d="M713.76 297.732V301.389H701.337V311.607H697.476V287.685H714.546V291.342H701.337V297.732H713.76Z" fill="#003CA6"/>
<path d="M742.309 307.951V311.607H725.204V287.685H729.066V307.951H742.309Z" fill="#003CA6"/>
<path d="M761.857 287.241C769.204 287.241 774.382 292.504 774.382 299.646C774.382 306.789 769.204 312.052 761.857 312.052C754.509 312.052 749.331 306.789 749.331 299.646C749.331 292.504 754.509 287.241 761.857 287.241ZM761.857 290.949C756.97 290.949 753.381 294.486 753.381 299.646C753.381 304.807 756.97 308.344 761.857 308.344C766.744 308.344 770.332 304.807 770.332 299.646C770.332 294.486 766.744 290.949 761.857 290.949Z" fill="#003CA6"/>
<path d="M817.884 287.685L810.587 311.607H805.803L800.079 292.931L794.354 311.607H789.57L782.273 287.685H786.323L792.013 307.148L797.926 287.685H802.317L808.212 307.148L813.919 287.685H817.884Z" fill="#003CA6"/>
<path d="M844.86 307.985V311.607H827.413V287.685H844.638V291.307H831.275V297.749H844.176V301.372H831.275V307.985H844.86Z" fill="#003CA6"/>
<path d="M856.177 287.685H866.019C871.521 287.685 874.494 290.145 874.494 294.605C874.494 298.672 871.384 301.372 866.515 301.543L874.392 311.607H869.607L861.986 301.543H860.038V311.607H856.177V287.685ZM865.916 291.307H860.038V298.04H865.916C869.026 298.04 870.479 296.912 870.479 294.605C870.479 292.333 868.941 291.307 865.916 291.307Z" fill="#003CA6"/>
<path d="M916.037 297.732V301.389H903.614V311.607H899.753V287.685H916.823V291.342H903.614V297.732H916.037Z" fill="#003CA6"/>
<path d="M927.481 287.685H937.324C942.826 287.685 945.799 290.145 945.799 294.605C945.799 298.672 942.689 301.372 937.819 301.543L945.696 311.607H940.912L933.291 301.543H931.343V311.607H927.481V287.685ZM937.221 291.307H931.343V298.04H937.221C940.331 298.04 941.783 296.912 941.783 294.605C941.783 292.333 940.246 291.307 937.221 291.307Z" fill="#003CA6"/>
<path d="M960.24 287.685V311.607H956.378V287.685H960.24Z" fill="#003CA6"/>
<path d="M972.192 287.685H981.693C989.177 287.685 994.115 292.435 994.115 299.646C994.115 306.857 989.177 311.607 981.693 311.607H972.192V287.685ZM981.693 291.342H976.054V307.951H981.693C987.314 307.951 990.065 304.465 990.065 299.646C990.065 294.776 987.314 291.342 981.693 291.342Z" fill="#003CA6"/>
<path d="M1015.66 287.685L1025.11 311.607H1020.96L1018.6 305.507H1007.77L1005.41 311.607H1001.39L1010.84 287.685H1015.66ZM1013.18 291.53L1009.18 301.85H1017.18L1013.18 291.53Z" fill="#003CA6"/>
<path d="M1051.58 287.685L1042.35 301.902V311.607H1038.49V301.833L1029.2 287.685H1033.81L1040.44 298.399L1047.09 287.685H1051.58Z" fill="#003CA6"/>
<path d="M713.76 362.384V366.041H701.337V376.259H697.476V352.337H714.546V355.993H701.337V362.384H713.76Z" fill="#003CA6"/>
<path d="M742.309 372.603V376.259H725.204V352.337H729.066V372.603H742.309Z" fill="#003CA6"/>
<path d="M761.857 351.892C769.204 351.892 774.382 357.155 774.382 364.298C774.382 371.441 769.204 376.704 761.857 376.704C754.509 376.704 749.331 371.441 749.331 364.298C749.331 357.155 754.509 351.892 761.857 351.892ZM761.857 355.6C756.97 355.6 753.381 359.138 753.381 364.298C753.381 369.458 756.97 372.996 761.857 372.996C766.744 372.996 770.332 369.458 770.332 364.298C770.332 359.138 766.744 355.6 761.857 355.6Z" fill="#003CA6"/>
<path d="M817.884 352.337L810.587 376.259H805.803L800.079 357.583L794.354 376.259H789.57L782.273 352.337H786.323L792.013 371.799L797.926 352.337H802.317L808.212 371.799L813.919 352.337H817.884Z" fill="#003CA6"/>
<path d="M844.86 372.637V376.259H827.413V352.337H844.638V355.959H831.275V362.401H844.176V366.024H831.275V372.637H844.86Z" fill="#003CA6"/>
<path d="M856.177 352.337H866.019C871.521 352.337 874.494 354.797 874.494 359.257C874.494 363.324 871.384 366.024 866.515 366.195L874.392 376.259H869.607L861.986 366.195H860.038V376.259H856.177V352.337ZM865.916 355.959H860.038V362.692H865.916C869.026 362.692 870.479 361.564 870.479 359.257C870.479 356.984 868.941 355.959 865.916 355.959Z" fill="#003CA6"/>
<path d="M916.037 362.384V366.041H903.614V376.259H899.753V352.337H916.823V355.993H903.614V362.384H916.037Z" fill="#003CA6"/>
<path d="M927.481 352.337H937.324C942.826 352.337 945.799 354.797 945.799 359.257C945.799 363.324 942.689 366.024 937.819 366.195L945.696 376.259H940.912L933.291 366.195H931.343V376.259H927.481V352.337ZM937.221 355.959H931.343V362.692H937.221C940.331 362.692 941.783 361.564 941.783 359.257C941.783 356.984 940.246 355.959 937.221 355.959Z" fill="#003CA6"/>
<path d="M960.24 352.337V376.259H956.378V352.337H960.24Z" fill="#003CA6"/>
<path d="M972.192 352.337H981.693C989.177 352.337 994.115 357.087 994.115 364.298C994.115 371.509 989.177 376.259 981.693 376.259H972.192V352.337ZM981.693 355.993H976.054V372.603H981.693C987.314 372.603 990.065 369.117 990.065 364.298C990.065 359.428 987.314 355.993 981.693 355.993Z" fill="#003CA6"/>
<path d="M1015.66 352.337L1025.11 376.259H1020.96L1018.6 370.159H1007.77L1005.41 376.259H1001.39L1010.84 352.337H1015.66ZM1013.18 356.181L1009.18 366.502H1017.18L1013.18 356.181Z" fill="#003CA6"/>
<path d="M1051.58 352.337L1042.35 366.554V376.259H1038.49V366.485L1029.2 352.337H1033.81L1040.44 363.051L1047.09 352.337H1051.58Z" fill="#003CA6"/>
<path d="M713.76 427.036V430.693H701.337V440.911H697.476V416.989H714.546V420.645H701.337V427.036H713.76Z" fill="#003CA6"/>
<path d="M742.309 437.254V440.911H725.204V416.989H729.066V437.254H742.309Z" fill="#003CA6"/>
<path d="M761.857 416.544C769.204 416.544 774.382 421.807 774.382 428.95C774.382 436.092 769.204 441.355 761.857 441.355C754.509 441.355 749.331 436.092 749.331 428.95C749.331 421.807 754.509 416.544 761.857 416.544ZM761.857 420.252C756.97 420.252 753.381 423.789 753.381 428.95C753.381 434.11 756.97 437.647 761.857 437.647C766.744 437.647 770.332 434.11 770.332 428.95C770.332 423.789 766.744 420.252 761.857 420.252Z" fill="#003CA6"/>
<path d="M817.884 416.989L810.587 440.911H805.803L800.079 422.234L794.354 440.911H789.57L782.273 416.989H786.323L792.013 436.451L797.926 416.989H802.317L808.212 436.451L813.919 416.989H817.884Z" fill="#003CA6"/>
<path d="M844.86 437.289V440.911H827.413V416.989H844.638V420.611H831.275V427.053H844.176V430.676H831.275V437.289H844.86Z" fill="#003CA6"/>
<path d="M856.177 416.989H866.019C871.521 416.989 874.494 419.449 874.494 423.909C874.494 427.976 871.384 430.676 866.515 430.847L874.392 440.911H869.607L861.986 430.847H860.038V440.911H856.177V416.989ZM865.916 420.611H860.038V427.344H865.916C869.026 427.344 870.479 426.216 870.479 423.909C870.479 421.636 868.941 420.611 865.916 420.611Z" fill="#003CA6"/>
<path d="M916.037 427.036V430.693H903.614V440.911H899.753V416.989H916.823V420.645H903.614V427.036H916.037Z" fill="#003CA6"/>
<path d="M927.481 416.989H937.324C942.826 416.989 945.799 419.449 945.799 423.909C945.799 427.976 942.689 430.676 937.819 430.847L945.696 440.911H940.912L933.291 430.847H931.343V440.911H927.481V416.989ZM937.221 420.611H931.343V427.344H937.221C940.331 427.344 941.783 426.216 941.783 423.909C941.783 421.636 940.246 420.611 937.221 420.611Z" fill="#003CA6"/>
<path d="M960.24 416.989V440.911H956.378V416.989H960.24Z" fill="#003CA6"/>
<path d="M972.192 416.989H981.693C989.177 416.989 994.115 421.739 994.115 428.95C994.115 436.161 989.177 440.911 981.693 440.911H972.192V416.989ZM981.693 420.645H976.054V437.254H981.693C987.314 437.254 990.065 433.769 990.065 428.95C990.065 424.08 987.314 420.645 981.693 420.645Z" fill="#003CA6"/>
<path d="M1015.66 416.989L1025.11 440.911H1020.96L1018.6 434.811H1007.77L1005.41 440.911H1001.39L1010.84 416.989H1015.66ZM1013.18 420.833L1009.18 431.154H1017.18L1013.18 420.833Z" fill="#003CA6"/>
<path d="M1051.58 416.989L1042.35 431.205V440.911H1038.49V431.137L1029.2 416.989H1033.81L1040.44 427.702L1047.09 416.989H1051.58Z" fill="#003CA6"/>
<path d="M713.76 491.688V495.345H701.337V505.563H697.476V481.64H714.546V485.297H701.337V491.688H713.76Z" fill="#003CA6"/>
<path d="M742.309 501.906V505.563H725.204V481.64H729.066V501.906H742.309Z" fill="#003CA6"/>
<path d="M761.857 481.196C769.204 481.196 774.382 486.459 774.382 493.602C774.382 500.744 769.204 506.007 761.857 506.007C754.509 506.007 749.331 500.744 749.331 493.602C749.331 486.459 754.509 481.196 761.857 481.196ZM761.857 484.904C756.97 484.904 753.381 488.441 753.381 493.602C753.381 498.762 756.97 502.299 761.857 502.299C766.744 502.299 770.332 498.762 770.332 493.602C770.332 488.441 766.744 484.904 761.857 484.904Z" fill="#003CA6"/>
<path d="M817.884 481.64L810.587 505.563H805.803L800.079 486.886L794.354 505.563H789.57L782.273 481.64H786.323L792.013 501.103L797.926 481.64H802.317L808.212 501.103L813.919 481.64H817.884Z" fill="#003CA6"/>
<path d="M844.86 501.94V505.563H827.413V481.64H844.638V485.263H831.275V491.705H844.176V495.328H831.275V501.94H844.86Z" fill="#003CA6"/>
<path d="M856.177 481.64H866.019C871.521 481.64 874.494 484.101 874.494 488.561C874.494 492.628 871.384 495.328 866.515 495.498L874.392 505.563H869.607L861.986 495.498H860.038V505.563H856.177V481.64ZM865.916 485.263H860.038V491.995H865.916C869.026 491.995 870.479 490.868 870.479 488.561C870.479 486.288 868.941 485.263 865.916 485.263Z" fill="#003CA6"/>
<path d="M916.037 491.688V495.345H903.614V505.563H899.753V481.64H916.823V485.297H903.614V491.688H916.037Z" fill="#003CA6"/>
<path d="M927.481 481.64H937.324C942.826 481.64 945.799 484.101 945.799 488.561C945.799 492.628 942.689 495.328 937.819 495.498L945.696 505.563H940.912L933.291 495.498H931.343V505.563H927.481V481.64ZM937.221 485.263H931.343V491.995H937.221C940.331 491.995 941.783 490.868 941.783 488.561C941.783 486.288 940.246 485.263 937.221 485.263Z" fill="#003CA6"/>
<path d="M960.24 481.64V505.563H956.378V481.64H960.24Z" fill="#003CA6"/>
<path d="M972.192 481.64H981.693C989.177 481.64 994.115 486.391 994.115 493.602C994.115 500.813 989.177 505.563 981.693 505.563H972.192V481.64ZM981.693 485.297H976.054V501.906H981.693C987.314 501.906 990.065 498.42 990.065 493.602C990.065 488.732 987.314 485.297 981.693 485.297Z" fill="#003CA6"/>
<path d="M1015.66 481.64L1025.11 505.563H1020.96L1018.6 499.463H1007.77L1005.41 505.563H1001.39L1010.84 481.64H1015.66ZM1013.18 485.485L1009.18 495.806H1017.18L1013.18 485.485Z" fill="#003CA6"/>
<path d="M1051.58 481.64L1042.35 495.857V505.563H1038.49V495.789L1029.2 481.64H1033.81L1040.44 492.354L1047.09 481.64H1051.58Z" fill="#003CA6"/>
<path d="M713.76 556.34V559.996H701.337V570.215H697.476V546.292H714.546V549.949H701.337V556.34H713.76Z" fill="#003CA6"/>
<path d="M742.309 566.558V570.215H725.204V546.292H729.066V566.558H742.309Z" fill="#003CA6"/>
<path d="M761.857 545.848C769.204 545.848 774.382 551.111 774.382 558.254C774.382 565.396 769.204 570.659 761.857 570.659C754.509 570.659 749.331 565.396 749.331 558.254C749.331 551.111 754.509 545.848 761.857 545.848ZM761.857 549.556C756.97 549.556 753.381 553.093 753.381 558.254C753.381 563.414 756.97 566.951 761.857 566.951C766.744 566.951 770.332 563.414 770.332 558.254C770.332 553.093 766.744 549.556 761.857 549.556Z" fill="#003CA6"/>
<path d="M817.884 546.292L810.587 570.215H805.803L800.079 551.538L794.354 570.215H789.57L782.273 546.292H786.323L792.013 565.755L797.926 546.292H802.317L808.212 565.755L813.919 546.292H817.884Z" fill="#003CA6"/>
<path d="M844.86 566.592V570.215H827.413V546.292H844.638V549.915H831.275V556.357H844.176V559.979H831.275V566.592H844.86Z" fill="#003CA6"/>
<path d="M856.177 546.292H866.019C871.521 546.292 874.494 548.753 874.494 553.213C874.494 557.28 871.384 559.979 866.515 560.15L874.392 570.215H869.607L861.986 560.15H860.038V570.215H856.177V546.292ZM865.916 549.915H860.038V556.647H865.916C869.026 556.647 870.479 555.52 870.479 553.213C870.479 550.94 868.941 549.915 865.916 549.915Z" fill="#003CA6"/>
<path d="M916.037 556.34V559.996H903.614V570.215H899.753V546.292H916.823V549.949H903.614V556.34H916.037Z" fill="#003CA6"/>
<path d="M927.481 546.292H937.324C942.826 546.292 945.799 548.753 945.799 553.213C945.799 557.28 942.689 559.979 937.819 560.15L945.696 570.215H940.912L933.291 560.15H931.343V570.215H927.481V546.292ZM937.221 549.915H931.343V556.647H937.221C940.331 556.647 941.783 555.52 941.783 553.213C941.783 550.94 940.246 549.915 937.221 549.915Z" fill="#003CA6"/>
<path d="M960.24 546.292V570.215H956.378V546.292H960.24Z" fill="#003CA6"/>
<path d="M972.192 546.292H981.693C989.177 546.292 994.115 551.043 994.115 558.254C994.115 565.464 989.177 570.215 981.693 570.215H972.192V546.292ZM981.693 549.949H976.054V566.558H981.693C987.314 566.558 990.065 563.072 990.065 558.254C990.065 553.384 987.314 549.949 981.693 549.949Z" fill="#003CA6"/>
<path d="M1015.66 546.292L1025.11 570.215H1020.96L1018.6 564.115H1007.77L1005.41 570.215H1001.39L1010.84 546.292H1015.66ZM1013.18 550.137L1009.18 560.458H1017.18L1013.18 550.137Z" fill="#003CA6"/>
<path d="M1051.58 546.292L1042.35 560.509V570.215H1038.49V560.441L1029.2 546.292H1033.81L1040.44 557.006L1047.09 546.292H1051.58Z" fill="#003CA6"/>
<path d="M713.76 620.992V624.648H701.337V634.867H697.476V610.944H714.546V614.601H701.337V620.992H713.76Z" fill="#003CA6"/>
<path d="M742.309 631.21V634.867H725.204V610.944H729.066V631.21H742.309Z" fill="#003CA6"/>
<path d="M761.857 610.5C769.204 610.5 774.382 615.763 774.382 622.905C774.382 630.048 769.204 635.311 761.857 635.311C754.509 635.311 749.331 630.048 749.331 622.905C749.331 615.763 754.509 610.5 761.857 610.5ZM761.857 614.208C756.97 614.208 753.381 617.745 753.381 622.905C753.381 628.066 756.97 631.603 761.857 631.603C766.744 631.603 770.332 628.066 770.332 622.905C770.332 617.745 766.744 614.208 761.857 614.208Z" fill="#003CA6"/>
<path d="M817.884 610.944L810.587 634.867H805.803L800.079 616.19L794.354 634.867H789.57L782.273 610.944H786.323L792.013 630.407L797.926 610.944H802.317L808.212 630.407L813.919 610.944H817.884Z" fill="#003CA6"/>
<path d="M844.86 631.244V634.867H827.413V610.944H844.638V614.567H831.275V621.009H844.176V624.631H831.275V631.244H844.86Z" fill="#003CA6"/>
<path d="M856.177 610.944H866.019C871.521 610.944 874.494 613.405 874.494 617.865C874.494 621.931 871.384 624.631 866.515 624.802L874.392 634.867H869.607L861.986 624.802H860.038V634.867H856.177V610.944ZM865.916 614.567H860.038V621.299H865.916C869.026 621.299 870.479 620.171 870.479 617.865C870.479 615.592 868.941 614.567 865.916 614.567Z" fill="#003CA6"/>
<path d="M916.037 620.992V624.648H903.614V634.867H899.753V610.944H916.823V614.601H903.614V620.992H916.037Z" fill="#003CA6"/>
<path d="M927.481 610.944H937.324C942.826 610.944 945.799 613.405 945.799 617.865C945.799 621.931 942.689 624.631 937.819 624.802L945.696 634.867H940.912L933.291 624.802H931.343V634.867H927.481V610.944ZM937.221 614.567H931.343V621.299H937.221C940.331 621.299 941.783 620.171 941.783 617.865C941.783 615.592 940.246 614.567 937.221 614.567Z" fill="#003CA6"/>
<path d="M960.24 610.944V634.867H956.378V610.944H960.24Z" fill="#003CA6"/>
<path d="M972.192 610.944H981.693C989.177 610.944 994.115 615.694 994.115 622.905C994.115 630.116 989.177 634.867 981.693 634.867H972.192V610.944ZM981.693 614.601H976.054V631.21H981.693C987.314 631.21 990.065 627.724 990.065 622.905C990.065 618.035 987.314 614.601 981.693 614.601Z" fill="#003CA6"/>
<path d="M1015.66 610.944L1025.11 634.867H1020.96L1018.6 628.766H1007.77L1005.41 634.867H1001.39L1010.84 610.944H1015.66ZM1013.18 614.789L1009.18 625.11H1017.18L1013.18 614.789Z" fill="#003CA6"/>
<path d="M1051.58 610.944L1042.35 625.161V634.867H1038.49V625.093L1029.2 610.944H1033.81L1040.44 621.658L1047.09 610.944H1051.58Z" fill="#003CA6"/>
<path d="M713.76 685.643V689.3H701.337V699.519H697.476V675.596H714.546V679.253H701.337V685.643H713.76Z" fill="#003CA6"/>
<path d="M742.309 695.862V699.519H725.204V675.596H729.066V695.862H742.309Z" fill="#003CA6"/>
<path d="M761.857 675.152C769.204 675.152 774.382 680.415 774.382 687.557C774.382 694.7 769.204 699.963 761.857 699.963C754.509 699.963 749.331 694.7 749.331 687.557C749.331 680.415 754.509 675.152 761.857 675.152ZM761.857 678.86C756.97 678.86 753.381 682.397 753.381 687.557C753.381 692.718 756.97 696.255 761.857 696.255C766.744 696.255 770.332 692.718 770.332 687.557C770.332 682.397 766.744 678.86 761.857 678.86Z" fill="#003CA6"/>
<path d="M817.884 675.596L810.587 699.519H805.803L800.079 680.842L794.354 699.519H789.57L782.273 675.596H786.323L792.013 695.059L797.926 675.596H802.317L808.212 695.059L813.919 675.596H817.884Z" fill="#003CA6"/>
<path d="M844.86 695.896V699.519H827.413V675.596H844.638V679.219H831.275V685.661H844.176V689.283H831.275V695.896H844.86Z" fill="#003CA6"/>
<path d="M856.177 675.596H866.019C871.521 675.596 874.494 678.057 874.494 682.516C874.494 686.583 871.384 689.283 866.515 689.454L874.392 699.519H869.607L861.986 689.454H860.038V699.519H856.177V675.596ZM865.916 679.219H860.038V685.951H865.916C869.026 685.951 870.479 684.823 870.479 682.516C870.479 680.244 868.941 679.219 865.916 679.219Z" fill="#003CA6"/>
<path d="M916.037 685.643V689.3H903.614V699.519H899.753V675.596H916.823V679.253H903.614V685.643H916.037Z" fill="#003CA6"/>
<path d="M927.481 675.596H937.324C942.826 675.596 945.799 678.057 945.799 682.516C945.799 686.583 942.689 689.283 937.819 689.454L945.696 699.519H940.912L933.291 689.454H931.343V699.519H927.481V675.596ZM937.221 679.219H931.343V685.951H937.221C940.331 685.951 941.783 684.823 941.783 682.516C941.783 680.244 940.246 679.219 937.221 679.219Z" fill="#003CA6"/>
<path d="M960.24 675.596V699.519H956.378V675.596H960.24Z" fill="#003CA6"/>
<path d="M972.192 675.596H981.693C989.177 675.596 994.115 680.346 994.115 687.557C994.115 694.768 989.177 699.519 981.693 699.519H972.192V675.596ZM981.693 679.253H976.054V695.862H981.693C987.314 695.862 990.065 692.376 990.065 687.557C990.065 682.687 987.314 679.253 981.693 679.253Z" fill="#003CA6"/>
<path d="M1015.66 675.596L1025.11 699.519H1020.96L1018.6 693.418H1007.77L1005.41 699.519H1001.39L1010.84 675.596H1015.66ZM1013.18 679.441L1009.18 689.762H1017.18L1013.18 679.441Z" fill="#003CA6"/>
<path d="M1051.58 675.596L1042.35 689.813V699.519H1038.49V689.744L1029.2 675.596H1033.81L1040.44 686.31L1047.09 675.596H1051.58Z" fill="#003CA6"/>
</g>
<rect y="383.005" width="976" height="266.995" fill="url(#paint0_linear_882_1081)"/>
<defs>
<linearGradient id="paint0_linear_882_1081" x1="488" y1="338.451" x2="488" y2="521.546" gradientUnits="userSpaceOnUse">
<stop stop-color="#E7F0FF" stop-opacity="0"/>
<stop offset="1" stop-color="#E7F0FF"/>
</linearGradient>
</defs>
</svg>
