<svg xmlns="http://www.w3.org/2000/svg" width="310" height="588" fill="none" viewBox="0 0 310 588"><path fill="#e1aa2c" d="M276.471 172.444c-32.638-83.13-99.127-188.936-166.554-170.28-28.42 7.842-53.974 41.8-72.933 78.712C5.648 144.5-6.48 201.066 3.311 234.504c6.138 21.384 22.15 39.39 47.27 53.454 18.874 10.378 41.291 18.416 64.973 25.499 10.789 3.23 21.845 6.236 32.932 9.125-50.302 42.575-89.879 84.675-101.466 121.915-9.01 26.628 17.253 83.952 75.61 123.145 87.824 59.285 144.997-24.494 169.21-103.897 27.941-91.608 21.083-199.406-15.329-291.259l-.048-.013z"/></svg>