<svg xmlns="http://www.w3.org/2000/svg" width="558" height="579" fill="none" viewBox="0 0 558 579"><path fill="#003ca6" d="M273.133 134.59C218.329 60.1 123.609-28.064 61.107 8.566c-26.35 15.418-42.875 56.206-52.013 98.193-14.408 72.014-11.475 131.849 7.23 162.701 11.839 19.763 32.659 33.515 61.54 40.897 21.652 5.357 46.226 7.429 71.81 8.207 11.657.358 23.521.421 35.385.358-38.993 56.004-67.381 108.675-69.056 149.027-1.922 29.045 39.629 79.411 108.466 103.084 103.675 35.929 138.568-63.137 141.644-149.043 3.556-99.112-32.023-205.154-92.929-287.369h-.051zm275.607 84.504c-6.763-11.354-18.666-19.156-35.268-23.392-12.372-3.053-26.481-4.236-41.137-4.735-6.685-.202-13.472-.233-20.262-.187 22.353-32.113 38.579-62.264 39.553-85.407 1.076-16.648-24.742-48.762-64.203-62.342-59.411-20.573-77.312 39.433-79.077 88.615-2.013 56.752 18.367 117.552 53.22 164.601 31.413 42.657 85.646 93.163 121.459 72.216 15.11-8.83 24.586-32.222 29.765-56.237 8.23-41.256 6.607-75.549-4.14-93.226l.051.078h.027z"/></svg>