<svg xmlns="http://www.w3.org/2000/svg" width="490" height="110" fill="none" viewBox="0 0 490 110"><g clip-path="url(#a)"><path fill="#d0def6" d="M181.865 386.883C68.829 364.691-80.811 304.785-72.731 214.909c3.38-37.877 40.562-78.158 83.018-110.752C83.777 49.68 152.754 21.209 197.449 25.9c28.556 2.844 55.107 19 78.763 47.622 17.534 21.551 32.918 48.14 47.382 76.553 6.594 12.944 12.965 26.279 19.195 39.68 42.395-73.677 86.666-133.635 131.243-156.95 31.706-17.59 110.522 2.48 173.751 67.469 95.541 97.737 2.448 189.661-92.712 238.748-109.786 56.641-248.164 72.867-373.144 47.902l-.027-.058z"/></g><defs><clipPath id="a"><path fill="#fff" d="M0 0h490v110H0z"/></clipPath></defs></svg>