<svg width="490" height="110" viewBox="0 0 490 110" fill="none" xmlns="http://www.w3.org/2000/svg">
<g clip-path="url(#clip0_1061_3365)">
<mask id="mask0_1061_3365" style="mask-type:luminance" maskUnits="userSpaceOnUse" x="0" y="0" width="490" height="110">
<path d="M490 0H0V110H490V0Z" fill="white"/>
</mask>
<g mask="url(#mask0_1061_3365)">
<mask id="mask1_1061_3365" style="mask-type:luminance" maskUnits="userSpaceOnUse" x="0" y="0" width="490" height="110">
<path d="M0 0H490V110H0V0Z" fill="white"/>
</mask>
<g mask="url(#mask1_1061_3365)">
<path d="M-64.86 369.518C-178.064 347.292 -327.927 287.298 -319.835 197.287C-316.45 159.354 -279.213 119.013 -236.693 86.3699C-163.094 31.8119 -94.014 3.29991 -49.253 7.99691C-20.654 10.8449 5.93696 27.0249 29.627 55.6899C47.188 77.2729 62.595 103.901 77.081 132.357C83.685 145.321 90.065 158.675 96.304 172.096C138.762 98.3089 183.1 38.2619 227.743 14.9119C259.496 -2.70511 338.429 17.3949 401.752 82.4819C497.436 180.364 404.205 272.426 308.902 321.586C198.952 378.311 60.368 394.561 -64.798 369.559L-64.825 369.501L-64.86 369.518Z" fill="url(#paint0_radial_1061_3365)"/>
<path d="M-64.86 369.518C-178.064 347.292 -327.927 287.298 -319.835 197.287C-316.45 159.354 -279.213 119.013 -236.693 86.3699C-163.094 31.8119 -94.014 3.29991 -49.253 7.99691C-20.654 10.8449 5.93696 27.0249 29.627 55.6899C47.188 77.2729 62.595 103.901 77.081 132.357C83.685 145.321 90.065 158.675 96.304 172.096C138.762 98.3089 183.1 38.2619 227.743 14.9119C259.496 -2.70511 338.429 17.3949 401.752 82.4819C497.436 180.364 404.205 272.426 308.902 321.586C198.952 378.311 60.368 394.561 -64.798 369.559L-64.825 369.501L-64.86 369.518Z" fill="url(#paint1_radial_1061_3365)"/>
<path d="M-64.86 369.518C-178.064 347.292 -327.927 287.298 -319.835 197.287C-316.45 159.354 -279.213 119.013 -236.693 86.3699C-163.094 31.8119 -94.014 3.29991 -49.253 7.99691C-20.654 10.8449 5.93696 27.0249 29.627 55.6899C47.188 77.2729 62.595 103.901 77.081 132.357C83.685 145.321 90.065 158.675 96.304 172.096C138.762 98.3089 183.1 38.2619 227.743 14.9119C259.496 -2.70511 338.429 17.3949 401.752 82.4819C497.436 180.364 404.205 272.426 308.902 321.586C198.952 378.311 60.368 394.561 -64.798 369.559L-64.825 369.501L-64.86 369.518Z" fill="url(#paint2_linear_1061_3365)"/>
</g>
</g>
</g>
<defs>
<radialGradient id="paint0_radial_1061_3365" cx="0" cy="0" r="1" gradientTransform="matrix(904.166 492.51 -972.177 974.786 -400.326 -57.454)" gradientUnits="userSpaceOnUse">
<stop stop-color="#FFF7F4"/>
<stop offset="0.546875" stop-color="#F4D4C7"/>
<stop offset="1" stop-color="#F4D4C7"/>
</radialGradient>
<radialGradient id="paint1_radial_1061_3365" cx="0" cy="0" r="1" gradientTransform="matrix(904.166 492.51 -972.177 974.786 -400.326 -57.454)" gradientUnits="userSpaceOnUse">
<stop stop-color="#FFF7F4"/>
<stop offset="0.546875" stop-color="#F4D4C7"/>
<stop offset="1" stop-color="#F4D4C7"/>
</radialGradient>
<linearGradient id="paint2_linear_1061_3365" x1="-320.149" y1="7.49609" x2="287.778" y2="552.783" gradientUnits="userSpaceOnUse">
<stop stop-color="#FFACAA"/>
<stop offset="0.25" stop-color="#DF7370"/>
<stop offset="0.5" stop-color="#DE6562"/>
<stop offset="0.75" stop-color="#DF7370"/>
<stop offset="1" stop-color="#FFACAA"/>
</linearGradient>
<clipPath id="clip0_1061_3365">
<rect width="490" height="110" fill="white"/>
</clipPath>
</defs>
</svg>
