<svg width="491" height="110" viewBox="0 0 491 110" fill="none" xmlns="http://www.w3.org/2000/svg">
<g clip-path="url(#clip0_1061_3352)">
<mask id="mask0_1061_3352" style="mask-type:luminance" maskUnits="userSpaceOnUse" x="0" y="0" width="491" height="110">
<path d="M491 0H0V110H491V0Z" fill="white"/>
</mask>
<g mask="url(#mask0_1061_3352)">
<mask id="mask1_1061_3352" style="mask-type:luminance" maskUnits="userSpaceOnUse" x="0" y="0" width="491" height="110">
<path d="M0 0H491V110H0V0Z" fill="white"/>
</mask>
<g mask="url(#mask1_1061_3352)">
<path d="M-313.302 386.883C-426.338 364.691 -575.978 304.785 -567.897 214.909C-564.518 177.032 -527.336 136.751 -484.88 104.157C-411.39 49.6801 -342.413 21.2091 -297.718 25.9001C-269.162 28.7441 -242.611 44.9001 -218.955 73.5221C-201.421 95.0731 -186.037 121.662 -171.573 150.075C-164.978 163.019 -158.608 176.354 -152.378 189.755C-109.983 116.078 -65.712 56.1201 -21.135 32.8051C10.571 15.2151 89.387 35.2851 152.616 100.274C248.157 198.011 155.064 289.935 59.904 339.022C-49.882 395.663 -188.26 411.889 -313.24 386.924L-313.267 386.866L-313.302 386.883Z" fill="url(#paint0_radial_1061_3352)"/>
<path d="M-313.302 386.883C-426.338 364.691 -575.978 304.785 -567.897 214.909C-564.518 177.032 -527.336 136.751 -484.88 104.157C-411.39 49.6801 -342.413 21.2091 -297.718 25.9001C-269.162 28.7441 -242.611 44.9001 -218.955 73.5221C-201.421 95.0731 -186.037 121.662 -171.573 150.075C-164.978 163.019 -158.608 176.354 -152.378 189.755C-109.983 116.078 -65.712 56.1201 -21.135 32.8051C10.571 15.2151 89.387 35.2851 152.616 100.274C248.157 198.011 155.064 289.935 59.904 339.022C-49.882 395.663 -188.26 411.889 -313.24 386.924L-313.267 386.866L-313.302 386.883Z" fill="url(#paint1_radial_1061_3352)"/>
<path d="M-313.302 386.883C-426.338 364.691 -575.978 304.785 -567.897 214.909C-564.518 177.032 -527.336 136.751 -484.88 104.157C-411.39 49.6801 -342.413 21.2091 -297.718 25.9001C-269.162 28.7441 -242.611 44.9001 -218.955 73.5221C-201.421 95.0731 -186.037 121.662 -171.573 150.075C-164.978 163.019 -158.608 176.354 -152.378 189.755C-109.983 116.078 -65.712 56.1201 -21.135 32.8051C10.571 15.2151 89.387 35.2851 152.616 100.274C248.157 198.011 155.064 289.935 59.904 339.022C-49.882 395.663 -188.26 411.889 -313.24 386.924L-313.267 386.866L-313.302 386.883Z" fill="url(#paint2_linear_1061_3352)"/>
<path d="M431.14 369.387C317.936 347.161 168.073 287.167 176.165 197.156C179.55 159.223 216.787 118.882 259.307 86.2392C332.906 31.6812 401.986 3.16823 446.748 7.86623C475.346 10.7142 501.937 26.8942 525.627 55.5592C543.188 77.1422 558.595 103.77 573.081 132.226C579.685 145.19 586.065 158.544 592.304 171.965C634.762 98.1782 679.099 38.1312 723.743 14.7812C755.496 -2.83577 834.429 17.2652 897.752 82.3512C993.436 180.233 900.205 272.295 804.902 321.455C694.952 378.18 556.368 394.43 431.203 369.428L431.175 369.37L431.14 369.387Z" fill="url(#paint3_radial_1061_3352)"/>
<path d="M431.14 369.387C317.936 347.161 168.073 287.167 176.165 197.156C179.55 159.223 216.787 118.882 259.307 86.2392C332.906 31.6812 401.986 3.16823 446.748 7.86623C475.346 10.7142 501.937 26.8942 525.627 55.5592C543.188 77.1422 558.595 103.77 573.081 132.226C579.685 145.19 586.065 158.544 592.304 171.965C634.762 98.1782 679.099 38.1312 723.743 14.7812C755.496 -2.83577 834.429 17.2652 897.752 82.3512C993.436 180.233 900.205 272.295 804.902 321.455C694.952 378.18 556.368 394.43 431.203 369.428L431.175 369.37L431.14 369.387Z" fill="url(#paint4_radial_1061_3352)"/>
<path d="M431.14 369.387C317.936 347.161 168.073 287.167 176.165 197.156C179.55 159.223 216.787 118.882 259.307 86.2392C332.906 31.6812 401.986 3.16823 446.748 7.86623C475.346 10.7142 501.937 26.8942 525.627 55.5592C543.188 77.1422 558.595 103.77 573.081 132.226C579.685 145.19 586.065 158.544 592.304 171.965C634.762 98.1782 679.099 38.1312 723.743 14.7812C755.496 -2.83577 834.429 17.2652 897.752 82.3512C993.436 180.233 900.205 272.295 804.902 321.455C694.952 378.18 556.368 394.43 431.203 369.428L431.175 369.37L431.14 369.387Z" fill="url(#paint5_linear_1061_3352)"/>
</g>
</g>
</g>
<defs>
<radialGradient id="paint0_radial_1061_3352" cx="0" cy="0" r="1" gradientTransform="matrix(902.82 491.777 -970.729 973.336 -648.268 -39.4535)" gradientUnits="userSpaceOnUse">
<stop stop-color="#FFF7F4"/>
<stop offset="0.546875" stop-color="#F4D4C7"/>
<stop offset="1" stop-color="#F4D4C7"/>
</radialGradient>
<radialGradient id="paint1_radial_1061_3352" cx="0" cy="0" r="1" gradientTransform="matrix(902.82 491.777 -970.729 973.336 -648.268 -39.4536)" gradientUnits="userSpaceOnUse">
<stop stop-color="#FFF7F4"/>
<stop offset="0.546875" stop-color="#F4D4C7"/>
<stop offset="1" stop-color="#F4D4C7"/>
</radialGradient>
<linearGradient id="paint2_linear_1061_3352" x1="-568.211" y1="25.3999" x2="38.8122" y2="569.875" gradientUnits="userSpaceOnUse">
<stop stop-color="#FFACAA"/>
<stop offset="0.25" stop-color="#DF7370"/>
<stop offset="0.5" stop-color="#DE6562"/>
<stop offset="0.75" stop-color="#DF7370"/>
<stop offset="1" stop-color="#FFACAA"/>
</linearGradient>
<radialGradient id="paint3_radial_1061_3352" cx="0" cy="0" r="1" gradientTransform="matrix(904.166 492.51 -972.177 974.786 95.674 -57.5849)" gradientUnits="userSpaceOnUse">
<stop stop-color="#FFF7F4"/>
<stop offset="0.546875" stop-color="#F4D4C7"/>
<stop offset="1" stop-color="#F4D4C7"/>
</radialGradient>
<radialGradient id="paint4_radial_1061_3352" cx="0" cy="0" r="1" gradientTransform="matrix(904.166 492.51 -972.177 974.786 95.6741 -57.5849)" gradientUnits="userSpaceOnUse">
<stop stop-color="#FFF7F4"/>
<stop offset="0.546875" stop-color="#F4D4C7"/>
<stop offset="1" stop-color="#F4D4C7"/>
</radialGradient>
<linearGradient id="paint5_linear_1061_3352" x1="175.851" y1="7.36523" x2="783.778" y2="552.652" gradientUnits="userSpaceOnUse">
<stop stop-color="#FFACAA"/>
<stop offset="0.25" stop-color="#DF7370"/>
<stop offset="0.5" stop-color="#DE6562"/>
<stop offset="0.75" stop-color="#DF7370"/>
<stop offset="1" stop-color="#FFACAA"/>
</linearGradient>
<clipPath id="clip0_1061_3352">
<rect width="491" height="110" fill="white"/>
</clipPath>
</defs>
</svg>
