<svg width="310" height="588" viewBox="0 0 310 588" fill="none" xmlns="http://www.w3.org/2000/svg">
<g clip-path="url(#clip0_946_828)">
<path d="M276.471 172.444C243.833 89.3138 177.344 -16.4922 109.917 2.16377C81.497 10.0058 55.943 43.9638 36.984 80.8758C5.648 144.5 -6.48 201.066 3.311 234.504C9.449 255.888 25.461 273.894 50.581 287.958C69.455 298.336 91.872 306.374 115.554 313.457C126.343 316.687 137.399 319.693 148.486 322.582C98.184 365.157 58.607 407.257 47.02 444.497C38.01 471.125 64.273 528.449 122.63 567.642C210.454 626.927 267.627 543.148 291.84 463.745C319.781 372.137 312.923 264.339 276.511 172.486L276.463 172.473L276.471 172.444Z" fill="#F4D4C7"/>
</g>
<defs>
<clipPath id="clip0_946_828">
<rect width="310" height="588" fill="white"/>
</clipPath>
</defs>
</svg>
